0
SECTION
2
HEADER
9
$INSUNITS
70
4
9
$ACADVER
1
AC1014
9
$HANDSEED
5
FFFF
0
ENDSEC
0
SECTION
2
TABLES
0
TABLE
2
VPORT
5
8
100
AcDbSymbolTable
0
ENDTAB
0
TABLE
2
LTYPE
5
5
100
AcDbSymbolTable
0
LTYPE
5
14
100
AcDbSymbolTableRecord
100
AcDbLinetypeTableRecord
2
BYBLOCK
70
0
0
LTYPE
5
15
100
AcDbSymbolTableRecord
100
AcDbLinetypeTableRecord
2
BYLAYER
70
0
0
ENDTAB
0
TABLE
2
LAYER
5
2
100
AcDbSymbolTable
70
2
0
LAYER
5
50
100
AcDbSymbolTableRecord
100
AcDbLayerTableRecord
2
0
70
0
6
CONTINUOUS
0
ENDTAB
0
TABLE
2
STYLE
5
3
100
AcDbSymbolTable
70
1
0
STYLE
5
11
100
AcDbSymbolTableRecord
100
AcDbTextStyleTableRecord
2
STANDARD
70
0
0
ENDTAB
0
TABLE
2
VIEW
5
6
100
AcDbSymbolTable
70
0
0
ENDTAB
0
TABLE
2
UCS
5
7
100
AcDbSymbolTable
70
0
0
ENDTAB
0
TABLE
2
APPID
5
9
100
AcDbSymbolTable
70
2
0
APPID
5
12
100
AcDbSymbolTableRecord
100
AcDbRegAppTableRecord
2
ACAD
70
0
0
ENDTAB
0
TABLE
2
DIMSTYLE
5
A
100
AcDbSymbolTable
70
1
0
ENDTAB
0
TABLE
2
BLOCK_RECORD
5
1
100
AcDbSymbolTable
70
1
0
BLOCK_RECORD
5
1F
100
AcDbSymbolTableRecord
100
AcDbBlockTableRecord
2
*MODEL_SPACE
0
BLOCK_RECORD
5
1B
100
AcDbSymbolTableRecord
100
AcDbBlockTableRecord
2
*PAPER_SPACE
0
ENDTAB
0
ENDSEC
0
SECTION
2
BLOCKS
0
BLOCK
5
20
100
AcDbEntity
100
AcDbBlockBegin
2
*MODEL_SPACE
0
ENDBLK
5
21
100
AcDbEntity
100
AcDbBlockEnd
0
BLOCK
5
1C
100
AcDbEntity
100
AcDbBlockBegin
2
*PAPER_SPACE
0
ENDBLK
5
1D
100
AcDbEntity
100
AcDbBlockEnd
0
ENDSEC
0
SECTION
2
ENTITIES
0
LWPOLYLINE
5
100
100
AcDbEntity
8
0
100
AcDbPolyline
90
4
70
1
43
0.0
10
128.89750609601609
20
96
10
-128.90415038564129
20
96
10
-128.90415038564132
20
90
10
128.89750609601609
20
90
0
LINE
5
101
100
AcDbEntity
8
0
100
AcDbLine
10
-128.90415038564129
20
96
30
-3.5527136788005009e-14
11
-113.69277204961038
21
96
31
-3.5527136788005009e-14
0
LINE
5
102
100
AcDbEntity
8
0
100
AcDbLine
10
-113.69277204961038
20
90
30
-3.5527136788005009e-14
11
-113.69277204961038
21
96
31
-3.5527136788005009e-14
0
LINE
5
103
100
AcDbEntity
8
0
100
AcDbLine
10
-83.692772049610383
20
90
30
-3.5527136788005009e-14
11
-83.692772049610383
21
96
31
-3.5527136788005009e-14
0
LINE
5
104
100
AcDbEntity
8
0
100
AcDbLine
10
-83.692772049610383
20
96
30
-3.5527136788005009e-14
11
-16.434980663820937
21
96
31
-3.5527136788005009e-14
0
LINE
5
105
100
AcDbEntity
8
0
100
AcDbLine
10
-16.434980663820937
20
96
30
-3.5527136788005009e-14
11
-16.434980663820937
21
90
31
-3.5527136788005009e-14
0
LINE
5
106
100
AcDbEntity
8
0
100
AcDbLine
10
13.890602318207987
20
90
30
-3.5527136788005009e-14
11
13.890602318207987
21
96
31
-3.5527136788005009e-14
0
LINE
5
107
100
AcDbEntity
8
0
100
AcDbLine
10
13.890602318207987
20
96
30
-3.5527136788005009e-14
11
84.350784012255474
21
96
31
-3.5527136788005009e-14
0
LINE
5
108
100
AcDbEntity
8
0
100
AcDbLine
10
84.350784012255474
20
96
30
-3.5527136788005009e-14
11
84.350784012255474
21
90
31
-3.5527136788005009e-14
0
LINE
5
109
100
AcDbEntity
8
0
100
AcDbLine
10
114.33741317829771
20
90
30
-3.5527136788005009e-14
11
114.33741317829771
21
96
31
-3.5527136788005009e-14
0
LINE
5
110
100
AcDbEntity
8
0
100
AcDbLine
10
84.350784012255474
20
90
30
-3.5527136788005009e-14
11
114.33741317829771
21
90
31
-3.5527136788005009e-14
0
LWPOLYLINE
5
111
100
AcDbEntity
8
0
100
AcDbPolyline
90
2
70
1
43
0.0
10
-113.69277204961038
20
90
10
-83.692772049610383
20
90
0
LINE
5
112
100
AcDbEntity
8
0
100
AcDbLine
10
-16.434980663820937
20
90
30
-3.5527136788005009e-14
11
13.890602318207987
21
90
31
-3.5527136788005009e-14
0
LINE
5
113
100
AcDbEntity
8
0
100
AcDbLine
10
-16.233399713265822
20
90.000000000000014
30
-3.5527136788005009e-14
11
13.766544472900224
21
89.999999999999986
31
-3.5535810405384893e-14
0
LINE
5
114
100
AcDbEntity
8
0
100
AcDbLine
10
114.33735736446377
20
96.000000000000028
30
0
11
114.33735736446377
21
90.000000000000028
31
0
0
LINE
5
115
100
AcDbEntity
8
0
100
AcDbLine
10
-134.90415038564123
20
116.00000000000001
30
-3.5527136788005009e-14
11
-128.90415038564129
21
116.00000000000001
31
-3.5527136788005009e-14
0
LINE
5
116
100
AcDbEntity
8
0
100
AcDbLine
10
-134.90415038564123
20
116.00000000000001
30
-3.5527136788005009e-14
11
-134.90415038564123
21
146
31
-3.5527136788005009e-14
0
LINE
5
117
100
AcDbEntity
8
0
100
AcDbLine
10
-134.90415038564123
20
146
30
-3.5527136788005009e-14
11
-128.90415038564126
21
146
31
-3.5527136788005009e-14
0
LINE
5
118
100
AcDbEntity
8
0
100
AcDbLine
10
-128.90415038564129
20
96
30
-3.5527136788005009e-14
11
-128.90415038564129
21
116.00000000000001
31
-3.5527136788005009e-14
0
LINE
5
119
100
AcDbEntity
8
0
100
AcDbLine
10
-128.90415038564126
20
146
30
-3.5527136788005009e-14
11
-128.90415038564126
21
166
31
-4.6098914263258658e-13
0
LINE
5
120
100
AcDbEntity
8
0
100
AcDbLine
10
114.33735736446377
20
96.000000000000028
30
0
11
129.33735736446377
21
96.000000000000028
31
0
0
LINE
5
121
100
AcDbEntity
8
0
100
AcDbLine
10
135.33735736446377
20
116.00000000000003
30
0
11
129.33735736446377
21
116.00000000000003
31
0
0
LINE
5
122
100
AcDbEntity
8
0
100
AcDbLine
10
135.33735736446377
20
116.00000000000003
30
0
11
135.33735736446377
21
146.00000000000003
31
0
0
LINE
5
123
100
AcDbEntity
8
0
100
AcDbLine
10
135.33735736446377
20
146.00000000000003
30
0
11
129.33735736446377
21
146.00000000000003
31
0
0
LINE
5
124
100
AcDbEntity
8
0
100
AcDbLine
10
129.33735736446377
20
96.000000000000028
30
0
11
129.33735736446377
21
116.00000000000003
31
0
0
LINE
5
125
100
AcDbEntity
8
0
100
AcDbLine
10
129.33735736446377
20
146.00000000000003
30
0
11
129.33735736446377
21
166
31
-4.6098914263258658e-13
0
LINE
5
126
100
AcDbEntity
8
0
100
AcDbLine
10
-65.063876356715667
20
172.00000000000003
30
-1.1647472564756765e-13
11
-65.063876356715667
21
166
31
-1.1647472564756765e-13
0
LINE
5
127
100
AcDbEntity
8
0
100
AcDbLine
10
-65.063876356715667
20
172.00000000000003
30
-1.1647472564756765e-13
11
-35.06387635671566
21
172.00000000000003
31
-1.1647472564756765e-13
0
LINE
5
128
100
AcDbEntity
8
0
100
AcDbLine
10
-35.06387635671566
20
172.00000000000003
30
-1.1647472564756765e-13
11
-35.06387635671566
21
166
31
-1.1647472564756765e-13
0
LINE
5
129
100
AcDbEntity
8
0
100
AcDbLine
10
64.120693165231728
20
172.00000000000003
30
-1.1508579397447302e-13
11
64.120693165231728
21
166
31
-1.1508579397447302e-13
0
LINE
5
130
100
AcDbEntity
8
0
100
AcDbLine
10
64.120693165231728
20
172.00000000000003
30
-1.1508579397447302e-13
11
34.120693165231728
21
172.00000000000003
31
-1.1508579397447302e-13
0
LINE
5
131
100
AcDbEntity
8
0
100
AcDbLine
10
34.120693165231728
20
172.00000000000003
30
-1.1508579397447302e-13
11
34.120693165231728
21
166
31
-1.1508579397447302e-13
0
LINE
5
132
100
AcDbEntity
8
0
100
AcDbLine
10
-128.90415038564126
20
166
30
-4.6098914263258658e-13
11
-65.063876356715667
21
166
31
-1.1647472564756765e-13
0
LINE
5
133
100
AcDbEntity
8
0
100
AcDbLine
10
-35.06387635671566
20
166
30
-1.1647472564756765e-13
11
34.120693165231728
21
166
31
-1.1508579397447302e-13
0
LINE
5
134
100
AcDbEntity
8
0
100
AcDbLine
10
64.120693165231728
20
166
30
-1.1508579397447302e-13
11
129.33735736446377
21
166
31
-4.6098914263258658e-13
0
CIRCLE
5
135
100
AcDbEntity
8
0
100
AcDbCircle
10
-61.013272900923816
20
131
30
-3.5527136788005009e-14
40
7.0250000000000012
210
0
220
0
230
1
0
ENDSEC
0
SECTION
2
OBJECTS
0
DICTIONARY
5
C
100
AcDbDictionary
3
ACAD_GROUP
350
D
3
ACAD_MLINESTYLE
350
17
0
DICTIONARY
5
D
100
AcDbDictionary
0
DICTIONARY
5
1A
330
C
100
AcDbDictionary
0
DICTIONARY
5
17
100
AcDbDictionary
0
ENDSEC
0
EOF
