0
SECTION
2
HEADER
9
$INSUNITS
70
4
9
$ACADVER
1
AC1014
9
$HANDSEED
5
FFFF
0
ENDSEC
0
SECTION
2
TABLES
0
TABLE
2
VPORT
5
8
100
AcDbSymbolTable
0
ENDTAB
0
TABLE
2
LTYPE
5
5
100
AcDbSymbolTable
0
LTYPE
5
14
100
AcDbSymbolTableRecord
100
AcDbLinetypeTableRecord
2
BYBLOCK
70
0
0
LTYPE
5
15
100
AcDbSymbolTableRecord
100
AcDbLinetypeTableRecord
2
BYLAYER
70
0
0
ENDTAB
0
TABLE
2
LAYER
5
2
100
AcDbSymbolTable
70
2
0
LAYER
5
50
100
AcDbSymbolTableRecord
100
AcDbLayerTableRecord
2
0
70
0
6
CONTINUOUS
0
ENDTAB
0
TABLE
2
STYLE
5
3
100
AcDbSymbolTable
70
1
0
STYLE
5
11
100
AcDbSymbolTableRecord
100
AcDbTextStyleTableRecord
2
STANDARD
70
0
0
ENDTAB
0
TABLE
2
VIEW
5
6
100
AcDbSymbolTable
70
0
0
ENDTAB
0
TABLE
2
UCS
5
7
100
AcDbSymbolTable
70
0
0
ENDTAB
0
TABLE
2
APPID
5
9
100
AcDbSymbolTable
70
2
0
APPID
5
12
100
AcDbSymbolTableRecord
100
AcDbRegAppTableRecord
2
ACAD
70
0
0
ENDTAB
0
TABLE
2
DIMSTYLE
5
A
100
AcDbSymbolTable
70
1
0
ENDTAB
0
TABLE
2
BLOCK_RECORD
5
1
100
AcDbSymbolTable
70
1
0
BLOCK_RECORD
5
1F
100
AcDbSymbolTableRecord
100
AcDbBlockTableRecord
2
*MODEL_SPACE
0
BLOCK_RECORD
5
1B
100
AcDbSymbolTableRecord
100
AcDbBlockTableRecord
2
*PAPER_SPACE
0
ENDTAB
0
ENDSEC
0
SECTION
2
BLOCKS
0
BLOCK
5
20
100
AcDbEntity
100
AcDbBlockBegin
2
*MODEL_SPACE
0
ENDBLK
5
21
100
AcDbEntity
100
AcDbBlockEnd
0
BLOCK
5
1C
100
AcDbEntity
100
AcDbBlockBegin
2
*PAPER_SPACE
0
ENDBLK
5
1D
100
AcDbEntity
100
AcDbBlockEnd
0
ENDSEC
0
SECTION
2
ENTITIES
0
LINE
5
100
100
AcDbEntity
8
0
100
AcDbLine
10
-135
20
0
30
0
11
135
21
0
31
0
0
LINE
5
101
100
AcDbEntity
8
0
100
AcDbLine
10
135
20
0
30
0
11
135
21
6.0000000000000009
31
0
0
LINE
5
102
100
AcDbEntity
8
0
100
AcDbLine
10
-135
20
6.0000000000000009
30
0
11
-135
21
0
31
0
0
LINE
5
103
100
AcDbEntity
8
0
100
AcDbLine
10
-85
20
6.0000000000000009
30
0
11
-84.999999999999986
21
0
31
0
0
LWPOLYLINE
5
104
100
AcDbEntity
8
0
100
AcDbPolyline
90
2
70
1
43
0.0
10
-84.999999999999986
20
0
10
-54.999999999999986
20
-9.3241163861444822e-15
0
LINE
5
105
100
AcDbEntity
8
0
100
AcDbLine
10
-54.999999999999986
20
-9.3241163861444822e-15
30
0
11
-54.999999999999986
21
6.0000000000000009
31
0
0
LINE
5
106
100
AcDbEntity
8
0
100
AcDbLine
10
-135
20
6.0000000000000009
30
0
11
-85
21
6.0000000000000009
31
0
0
LINE
5
107
100
AcDbEntity
8
0
100
AcDbLine
10
-85
20
6.0000000000000009
30
0
11
-129
21
6.0000000000000009
31
0
0
LINE
5
108
100
AcDbEntity
8
0
100
AcDbLine
10
-69.000000000000014
20
90.000000000000028
30
0
11
-69.000000000000014
21
96.000000000000028
31
0
0
LINE
5
109
100
AcDbEntity
8
0
100
AcDbLine
10
-69.000000000000014
20
90.000000000000028
30
0
11
-39.000000000000014
21
90.000000000000028
31
0
0
LINE
5
110
100
AcDbEntity
8
0
100
AcDbLine
10
-39.000000000000014
20
96.000000000000028
30
0
11
-39.000000000000014
21
90.000000000000028
31
0
0
LINE
5
111
100
AcDbEntity
8
0
100
AcDbLine
10
69
20
96.000000000000028
30
0
11
69
21
90.000000000000028
31
0
0
LINE
5
112
100
AcDbEntity
8
0
100
AcDbLine
10
39.000000000000014
20
90.000000000000057
30
0
11
39.000000000000014
21
96.000000000000057
31
0
0
LINE
5
113
100
AcDbEntity
8
0
100
AcDbLine
10
35.857889999999941
20
96.000000000000028
30
0
11
39.000000000000014
21
96.000000000000057
31
0
0
LINE
5
114
100
AcDbEntity
8
0
100
AcDbLine
10
39.000000000000014
20
90.000000000000057
30
0
11
69
21
90.000000000000028
31
0
0
LINE
5
115
100
AcDbEntity
8
0
100
AcDbLine
10
-129
20
6.0000000000000009
30
0
11
-129
21
34.530157642259532
31
0
0
LINE
5
116
100
AcDbEntity
8
0
100
AcDbLine
10
-129
20
51.000000000000014
30
0
11
-49
21
51.000000000000021
31
0
0
LINE
5
117
100
AcDbEntity
8
0
100
AcDbLine
10
129
20
6.000000000000032
30
0
11
129
21
36.000000000000028
31
0
0
LINE
5
118
100
AcDbEntity
8
0
100
AcDbLine
10
129
20
51
30
0
11
49
21
51.000000000000014
31
0
0
CIRCLE
5
119
100
AcDbEntity
8
0
100
AcDbCircle
10
49
20
51.000000000000014
30
0
40
7.0250000000000012
210
0
220
0
230
1
0
CIRCLE
5
120
100
AcDbEntity
8
0
100
AcDbCircle
10
-49
20
51.000000000000021
30
0
40
7.0250000000000012
210
0
220
0
230
1
0
LWPOLYLINE
5
121
100
AcDbEntity
8
0
100
AcDbPolyline
90
4
70
1
43
0.0
10
129
20
96.000000000000028
10
129
20
66.000000000000028
10
129
20
96.000000000000028
10
114
20
96.000000000000028
0
LINE
5
122
100
AcDbEntity
8
0
100
AcDbLine
10
129
20
66.000000000000028
30
0
11
135
21
66.000000000000028
31
0
0
LINE
5
123
100
AcDbEntity
8
0
100
AcDbLine
10
135
20
66.000000000000028
30
0
11
135
21
36.000000000000028
31
0
0
LINE
5
124
100
AcDbEntity
8
0
100
AcDbLine
10
135
20
36.000000000000028
30
0
11
129
21
36.000000000000028
31
0
0
LWPOLYLINE
5
125
100
AcDbEntity
8
0
100
AcDbPolyline
90
2
70
1
43
0.0
10
129
20
36.000000000000028
10
129
20
6.000000000000032
0
LINE
5
126
100
AcDbEntity
8
0
100
AcDbLine
10
-135
20
64.530157642259539
30
0
11
-135
21
45.640192744671609
31
0
0
LINE
5
127
100
AcDbEntity
8
0
100
AcDbLine
10
-135
20
64.530157642259539
30
0
11
-129
21
64.530157642259539
31
0
0
LINE
5
128
100
AcDbEntity
8
0
100
AcDbLine
10
-135
20
45.640192744671609
30
0
11
-135
21
34.530157642259532
31
0
0
LINE
5
129
100
AcDbEntity
8
0
100
AcDbLine
10
-135
20
34.530157642259532
30
0
11
-129
21
34.530157642259532
31
0
0
LINE
5
130
100
AcDbEntity
8
0
100
AcDbLine
10
-129
20
6.0000000000000009
30
0
11
-129
21
34.530157642259532
31
0
0
LINE
5
131
100
AcDbEntity
8
0
100
AcDbLine
10
-129
20
64.530157642259539
30
0
11
-129
21
96.000000000000014
31
0
0
LINE
5
132
100
AcDbEntity
8
0
100
AcDbLine
10
-54.999999999999986
20
6.0000000000000009
30
0
11
-14.999999999999982
21
6.0000000000000036
31
0
0
LINE
5
133
100
AcDbEntity
8
0
100
AcDbLine
10
-14.999999999999982
20
0
30
0
11
-14.999999999999982
21
6.0000000000000036
31
0
0
LINE
5
134
100
AcDbEntity
8
0
100
AcDbLine
10
-14.999999999999982
20
0
30
0
11
15.000000000000018
21
0
31
0
0
LINE
5
135
100
AcDbEntity
8
0
100
AcDbLine
10
15.000000000000018
20
0
30
0
11
15.000000000000018
21
6.0000000000000009
31
0
0
LINE
5
136
100
AcDbEntity
8
0
100
AcDbLine
10
15.000000000000018
20
6.0000000000000009
30
0
11
55.197058284488214
21
6.0000000000000009
31
0
0
LINE
5
137
100
AcDbEntity
8
0
100
AcDbLine
10
55.197058284488214
20
6.0000000000000009
30
0
11
55.197058284488214
21
0
31
0
0
LINE
5
138
100
AcDbEntity
8
0
100
AcDbLine
10
55.197058284488214
20
0
30
0
11
85.197058284488207
21
0
31
0
0
LINE
5
139
100
AcDbEntity
8
0
100
AcDbLine
10
85.197058284488207
20
0
30
0
11
85.197058284488207
21
6.0000000000000275
31
0
0
LINE
5
140
100
AcDbEntity
8
0
100
AcDbLine
10
55
20
6.0000000000000009
30
0
11
15
21
6.0000000000000009
31
0
0
LINE
5
141
100
AcDbEntity
8
0
100
AcDbLine
10
85.197058284488207
20
6.0000000000000275
30
0
11
129
21
6.000000000000032
31
0
0
LINE
5
142
100
AcDbEntity
8
0
100
AcDbLine
10
-129
20
96.000000000000014
30
0
11
-114
21
96.000000000000014
31
0
0
LINE
5
143
100
AcDbEntity
8
0
100
AcDbLine
10
-114
20
96.000000000000014
30
0
11
-114
21
90.000000000000014
31
0
0
LINE
5
144
100
AcDbEntity
8
0
100
AcDbLine
10
-114
20
90.000000000000014
30
0
11
-84
21
90.000000000000014
31
0
0
LINE
5
145
100
AcDbEntity
8
0
100
AcDbLine
10
-84
20
90.000000000000014
30
0
11
-84
21
96.000000000000014
31
0
0
LINE
5
146
100
AcDbEntity
8
0
100
AcDbLine
10
129
20
96.000000000000028
30
0
11
126.63357200908551
21
96.000000000000028
31
0
0
LINE
5
147
100
AcDbEntity
8
0
100
AcDbLine
10
114
20
96.000000000000028
30
0
11
114
21
90.000000000000028
31
0
0
LINE
5
148
100
AcDbEntity
8
0
100
AcDbLine
10
114
20
90.000000000000028
30
0
11
84
21
90.000000000000028
31
0
0
LINE
5
149
100
AcDbEntity
8
0
100
AcDbLine
10
84
20
90.000000000000028
30
0
11
84
21
96.000000000000028
31
0
0
LINE
5
150
100
AcDbEntity
8
0
100
AcDbLine
10
-39.000000000000014
20
96.000000000000028
30
0
11
-16.571000000000012
21
96.000000000000014
31
0
0
LINE
5
151
100
AcDbEntity
8
0
100
AcDbLine
10
-16.571000000000012
20
96.000000000000014
30
0
11
-16.571000000000016
21
90.000000000000014
31
0
0
LINE
5
152
100
AcDbEntity
8
0
100
AcDbLine
10
-16.571000000000016
20
90.000000000000014
30
0
11
13.428999999999986
21
89.999999999999986
31
0
0
LINE
5
153
100
AcDbEntity
8
0
100
AcDbLine
10
13.428999999999986
20
89.999999999999986
30
0
11
13.428999999999988
21
96.000000000000028
31
0
0
LINE
5
154
100
AcDbEntity
8
0
100
AcDbLine
10
-39.000000000000014
20
96.000000000000028
30
0
11
-16.571000000000012
21
96.000000000000014
31
0
0
LINE
5
155
100
AcDbEntity
8
0
100
AcDbLine
10
13.428999999999988
20
96.000000000000028
30
0
11
35.857889999999941
21
96.000000000000028
31
0
0
LINE
5
156
100
AcDbEntity
8
0
100
AcDbLine
10
-129
20
96.000000000000014
30
0
11
-114
21
96.000000000000014
31
0
0
LINE
5
157
100
AcDbEntity
8
0
100
AcDbLine
10
-84
20
96.000000000000014
30
0
11
-69.000000000000014
21
96.000000000000028
31
0
0
LINE
5
158
100
AcDbEntity
8
0
100
AcDbLine
10
84
20
96.000000000000028
30
0
11
69
21
96.000000000000028
31
0
0
ENDSEC
0
SECTION
2
OBJECTS
0
DICTIONARY
5
C
100
AcDbDictionary
3
ACAD_GROUP
350
D
3
ACAD_MLINESTYLE
350
17
0
DICTIONARY
5
D
100
AcDbDictionary
0
DICTIONARY
5
1A
330
C
100
AcDbDictionary
0
DICTIONARY
5
17
100
AcDbDictionary
0
ENDSEC
0
EOF
