0
SECTION
2
HEADER
9
$INSUNITS
70
4
9
$ACADVER
1
AC1014
9
$HANDSEED
5
FFFF
0
ENDSEC
0
SECTION
2
TABLES
0
TABLE
2
VPORT
5
8
100
AcDbSymbolTable
0
ENDTAB
0
TABLE
2
LTYPE
5
5
100
AcDbSymbolTable
0
LTYPE
5
14
100
AcDbSymbolTableRecord
100
AcDbLinetypeTableRecord
2
BYBLOCK
70
0
0
LTYPE
5
15
100
AcDbSymbolTableRecord
100
AcDbLinetypeTableRecord
2
BYLAYER
70
0
0
ENDTAB
0
TABLE
2
LAYER
5
2
100
AcDbSymbolTable
70
2
0
LAYER
5
50
100
AcDbSymbolTableRecord
100
AcDbLayerTableRecord
2
0
70
0
6
CONTINUOUS
0
ENDTAB
0
TABLE
2
STYLE
5
3
100
AcDbSymbolTable
70
1
0
STYLE
5
11
100
AcDbSymbolTableRecord
100
AcDbTextStyleTableRecord
2
STANDARD
70
0
0
ENDTAB
0
TABLE
2
VIEW
5
6
100
AcDbSymbolTable
70
0
0
ENDTAB
0
TABLE
2
UCS
5
7
100
AcDbSymbolTable
70
0
0
ENDTAB
0
TABLE
2
APPID
5
9
100
AcDbSymbolTable
70
2
0
APPID
5
12
100
AcDbSymbolTableRecord
100
AcDbRegAppTableRecord
2
ACAD
70
0
0
ENDTAB
0
TABLE
2
DIMSTYLE
5
A
100
AcDbSymbolTable
70
1
0
ENDTAB
0
TABLE
2
BLOCK_RECORD
5
1
100
AcDbSymbolTable
70
1
0
BLOCK_RECORD
5
1F
100
AcDbSymbolTableRecord
100
AcDbBlockTableRecord
2
*MODEL_SPACE
0
BLOCK_RECORD
5
1B
100
AcDbSymbolTableRecord
100
AcDbBlockTableRecord
2
*PAPER_SPACE
0
ENDTAB
0
ENDSEC
0
SECTION
2
BLOCKS
0
BLOCK
5
20
100
AcDbEntity
100
AcDbBlockBegin
2
*MODEL_SPACE
0
ENDBLK
5
21
100
AcDbEntity
100
AcDbBlockEnd
0
BLOCK
5
1C
100
AcDbEntity
100
AcDbBlockBegin
2
*PAPER_SPACE
0
ENDBLK
5
1D
100
AcDbEntity
100
AcDbBlockEnd
0
ENDSEC
0
SECTION
2
ENTITIES
0
LWPOLYLINE
5
100
100
AcDbEntity
8
0
100
AcDbPolyline
90
96
70
1
43
0.0
10
-135
20
-69.500000000000028
42
0.41421356237310025
10
-134.5
20
-70.000000000000014
10
-129.50000000000003
20
-69.999999999999986
42
-0.41421356237309503
10
-129.00000000000003
20
-70.5
10
-129
20
-99.5
42
-0.41421356237309503
10
-129.5
20
-100
10
-134.5
20
-100
42
0.41421356237309503
10
-135
20
-100.5
10
-135
20
-174.50000000000003
42
0.41421356237310542
10
-134.5
20
-175
10
-85.5
20
-175
42
0.41421356237310542
10
-84.999999999999986
20
-174.50000000000003
10
-85
20
-169.50000000000003
42
-0.41421356237309503
10
-84.5
20
-169.00000000000003
10
-55.500000000000007
20
-169
42
-0.41421356237309503
10
-55.000000000000007
20
-169.5
10
-55
20
-174.49999999999994
42
0.41421356237312623
10
-54.499999999999993
20
-175
10
-15.500000000000007
20
-175
42
0.41421356237312495
10
-15.00000000000002
20
-174.50000000000003
10
-15.000000000000007
20
-169.50000000000003
42
-0.41421356237309503
10
-14.5
20
-169.00000000000003
10
14.500000000000004
20
-169
42
-0.4142135623730937
10
15.000000000000002
20
-169.5
10
15
20
-174.49999999999994
42
0.41421356237312495
10
15.500000000000007
20
-175
10
54.500000000000028
20
-175
42
0.4142135623730378
10
55.000000000000007
20
-174.50000000000003
10
54.999999999999993
20
-169.50000000000003
42
-0.41421356237309503
10
55.5
20
-169.00000000000003
10
84.5
20
-169
42
-0.41421356237309503
10
85
20
-169.5
10
85
20
-174.49999999999994
42
0.41421356237310542
10
85.5
20
-174.99999999999994
10
134.5
20
-175
42
0.41421356237310542
10
135.00000000000003
20
-174.50000000000003
10
135
20
-100.5
42
0.41421356237309503
10
134.5
20
-100
10
129.50000000000003
20
-100
42
-0.41421356237309503
10
129.00000000000003
20
-99.5
10
129.00000000000003
20
-70.5
42
-0.41421356237309503
10
129.5
20
-70.000000000000014
10
134.5
20
-70
42
0.41421356237310025
10
135
20
-69.5
10
135
20
4.4999999999999929
42
0.41421356237310542
10
134.5
20
4.9999999999999822
10
129.50000000000003
20
4.999999999999984
42
-0.41421356237309503
10
129.00000000000003
20
5.4999999999999911
10
129.00000000000003
20
34.499999999999993
42
-0.41421356237309503
10
129.5
20
34.999999999999993
10
134.5
20
34.999999999999993
42
0.41421356237310542
10
135
20
35.499999999999972
10
135
20
109.49999999999996
42
0.41421356237309503
10
134.5
20
109.99999999999997
10
129.50000000000003
20
109.99999999999999
42
-0.41421356237309503
10
129.00000000000003
20
110.49999999999999
10
129
20
139.5
42
-0.4142135623730846
10
129.5
20
139.99999999999997
10
134.5
20
139.99999999999997
42
0.41421356237309503
10
135
20
140.49999999999997
10
135
20
174.50000000000003
42
0.41421356237310542
10
134.5
20
175
10
85.5
20
175
42
0.41421356237310542
10
84.999999999999986
20
174.50000000000003
10
85
20
169.50000000000003
42
-0.41421356237309503
10
84.5
20
169.00000000000003
10
40.500000000000007
20
169
42
-0.41421356237309503
10
40.000000000000007
20
169.5
10
40
20
174.49999999999994
42
0.41421356237312623
10
39.499999999999993
20
175
10
-39.500000000000028
20
175
42
0.41421356237304302
10
-40.000000000000014
20
174.50000000000003
10
-39.999999999999993
20
169.50000000000003
42
-0.41421356237309503
10
-40.5
20
169.00000000000003
10
-84.5
20
169
42
-0.41421356237309503
10
-85
20
169.5
10
-85
20
174.49999999999994
42
0.41421356237310542
10
-85.5
20
174.99999999999994
10
-134.5
20
175
42
0.41421356237310542
10
-135.00000000000003
20
174.50000000000003
10
-135
20
140.5
42
0.41421356237307422
10
-134.5
20
139.99999999999997
10
-129.50000000000003
20
139.99999999999997
42
-0.41421356237309503
10
-129.00000000000003
20
139.49999999999997
10
-129
20
110.49999999999999
42
-0.41421356237309503
10
-129.5
20
109.99999999999999
10
-134.5
20
109.99999999999999
42
0.41421356237307422
10
-135
20
109.49999999999997
10
-135
20
35.499999999999986
42
0.41421356237310542
10
-134.5
20
35
10
-129.50000000000003
20
35.000000000000007
42
-0.41421356237309503
10
-129.00000000000003
20
34.5
10
-129
20
5.5000000000000027
42
-0.41421356237309503
10
-129.5
20
5.0000000000000018
10
-134.5
20
5
42
0.41421356237310542
10
-135.00000000000003
20
4.4999999999999929
0
CIRCLE
5
101
100
AcDbEntity
8
0
100
AcDbCircle
10
96.280000000000001
20
-135.94999999999996
30
0
40
1.6000000000000014
210
0
220
0
230
1
0
CIRCLE
5
102
100
AcDbEntity
8
0
100
AcDbCircle
10
109.03
20
-104.14999999999999
30
0
40
1.6000000000000014
210
0
220
0
230
1
0
CIRCLE
5
103
100
AcDbEntity
8
0
100
AcDbCircle
10
-109.05999999999999
20
-135.95000000000002
30
0
40
1.6000000000000014
210
0
220
0
230
1
0
CIRCLE
5
104
100
AcDbEntity
8
0
100
AcDbCircle
10
-121.78
20
-104.15000000000001
30
0
40
1.6000000000000014
210
0
220
0
230
1
0
CIRCLE
5
105
100
AcDbEntity
8
0
100
AcDbCircle
10
-109.06000000000003
20
135.95000000000002
30
0
40
1.6000000000000014
210
0
220
0
230
1
0
CIRCLE
5
106
100
AcDbEntity
8
0
100
AcDbCircle
10
-109.06000000000003
20
104.15000000000003
30
0
40
1.6000000000000014
210
0
220
0
230
1
0
CIRCLE
5
107
100
AcDbEntity
8
0
100
AcDbCircle
10
96.287999999999911
20
135.95000000000002
30
0
40
1.6000000000000014
210
0
220
0
230
1
0
LWPOLYLINE
5
108
100
AcDbEntity
8
0
100
AcDbPolyline
90
8
70
1
43
0.0
10
65.409999999999982
20
130.005
10
77.509999999999991
20
130.005
42
-0.41421356237309503
10
78.509999999999991
20
129.005
10
78.509999999999991
20
111.00499999999998
42
-0.41421356237309503
10
77.509999999999991
20
110.005
10
65.409999999999982
20
110.00500000000001
42
-0.41421356237309503
10
64.409999999999997
20
111.005
10
64.409999999999982
20
129.005
42
-0.41421356237309503
0
CIRCLE
5
109
100
AcDbEntity
8
0
100
AcDbCircle
10
109.05999999999992
20
135.95000000000002
30
0
40
1.6000000000000014
210
0
220
0
230
1
0
CIRCLE
5
110
100
AcDbEntity
8
0
100
AcDbCircle
10
121.77999999999999
20
104.15000000000003
30
0
40
1.6000000000000014
210
0
220
0
230
1
0
CIRCLE
5
111
100
AcDbEntity
8
0
100
AcDbCircle
10
-96.340000000000018
20
104.15000000000003
30
0
40
1.6000000000000014
210
0
220
0
230
1
0
CIRCLE
5
112
100
AcDbEntity
8
0
100
AcDbCircle
10
-121.78000000000003
20
135.95000000000002
30
0
40
1.6000000000000014
210
0
220
0
230
1
0
CIRCLE
5
113
100
AcDbEntity
8
0
100
AcDbCircle
10
-96.339999999999989
20
-135.95000000000002
30
0
40
1.6000000000000014
210
0
220
0
230
1
0
CIRCLE
5
114
100
AcDbEntity
8
0
100
AcDbCircle
10
96.280000000000001
20
-104.14999999999999
30
0
40
1.6000000000000014
210
0
220
0
230
1
0
CIRCLE
5
115
100
AcDbEntity
8
0
100
AcDbCircle
10
109.03
20
-135.94999999999999
30
0
40
1.6000000000000014
210
0
220
0
230
1
0
CIRCLE
5
116
100
AcDbEntity
8
0
100
AcDbCircle
10
121.78
20
-104.14999999999999
30
0
40
1.6000000000000014
210
0
220
0
230
1
0
CIRCLE
5
117
100
AcDbEntity
8
0
100
AcDbCircle
10
-121.77999999999999
20
-135.95000000000002
30
0
40
1.6000000000000014
210
0
220
0
230
1
0
CIRCLE
5
118
100
AcDbEntity
8
0
100
AcDbCircle
10
-109.06
20
-104.14999999999999
30
0
40
1.6000000000000014
210
0
220
0
230
1
0
CIRCLE
5
119
100
AcDbEntity
8
0
100
AcDbCircle
10
-96.340000000000018
20
135.95000000000002
30
0
40
1.6000000000000014
210
0
220
0
230
1
0
CIRCLE
5
120
100
AcDbEntity
8
0
100
AcDbCircle
10
-121.78
20
104.15000000000003
30
0
40
1.6000000000000014
210
0
220
0
230
1
0
CIRCLE
5
121
100
AcDbEntity
8
0
100
AcDbCircle
10
96.339999999999989
20
104.15000000000005
30
0
40
1.6000000000000014
210
0
220
0
230
1
0
CIRCLE
5
122
100
AcDbEntity
8
0
100
AcDbCircle
10
121.77999999999992
20
135.95000000000002
30
0
40
1.6000000000000014
210
0
220
0
230
1
0
CIRCLE
5
123
100
AcDbEntity
8
0
100
AcDbCircle
10
109.05999999999999
20
104.15000000000003
30
0
40
1.6000000000000014
210
0
220
0
230
1
0
LWPOLYLINE
5
124
100
AcDbEntity
8
0
100
AcDbPolyline
90
8
70
1
43
0.0
10
-64.410000000000011
20
129.00500000000002
10
-64.410000000000011
20
111.00500000000004
42
-0.41421356237309503
10
-65.409999999999997
20
110.00500000000004
10
-77.510000000000019
20
110.00500000000002
42
-0.41421356237309503
10
-78.510000000000005
20
111.00500000000002
10
-78.510000000000005
20
129.005
42
-0.41421356237309503
10
-77.510000000000019
20
130.005
10
-65.409999999999997
20
130.00500000000002
42
-0.41421356237309503
0
CIRCLE
5
125
100
AcDbEntity
8
0
100
AcDbCircle
10
-96.340000000000018
20
-104.14999999999999
30
0
40
1.6000000000000014
210
0
220
0
230
1
0
LWPOLYLINE
5
126
100
AcDbEntity
8
0
100
AcDbPolyline
90
8
70
1
43
0.0
10
-65.409999999999982
20
-130.095
10
-77.509999999999991
20
-130.095
42
-0.41421356237309503
10
-78.509999999999991
20
-129.09500000000003
10
-78.509999999999991
20
-111.095
42
-0.41421356237309503
10
-77.509999999999991
20
-110.09500000000001
10
-65.409999999999982
20
-110.09500000000001
42
-0.41421356237309503
10
-64.409999999999997
20
-111.095
10
-64.409999999999997
20
-129.09500000000003
42
-0.41421356237309503
0
LWPOLYLINE
5
127
100
AcDbEntity
8
0
100
AcDbPolyline
90
8
70
1
43
0.0
10
65.409999999999982
20
-110.095
10
77.509999999999977
20
-110.09500000000001
42
-0.41421356237309503
10
78.509999999999977
20
-111.095
10
78.509999999999977
20
-129.09499999999997
42
-0.41421356237309503
10
77.509999999999977
20
-130.09499999999997
10
65.409999999999968
20
-130.09499999999997
42
-0.41421356237309503
10
64.409999999999968
20
-129.09499999999997
10
64.409999999999982
20
-111.09499999999998
42
-0.41421356237309503
0
CIRCLE
5
128
100
AcDbEntity
8
0
100
AcDbCircle
10
121.78
20
-135.94999999999999
30
0
40
1.5000000000000036
210
0
220
0
230
1
0
ENDSEC
0
SECTION
2
OBJECTS
0
DICTIONARY
5
C
100
AcDbDictionary
3
ACAD_GROUP
350
D
3
ACAD_MLINESTYLE
350
17
0
DICTIONARY
5
D
100
AcDbDictionary
0
DICTIONARY
5
1A
330
C
100
AcDbDictionary
0
DICTIONARY
5
17
100
AcDbDictionary
0
ENDSEC
0
EOF
