0
SECTION
2
HEADER
9
$INSUNITS
70
4
9
$ACADVER
1
AC1014
9
$HANDSEED
5
FFFF
0
ENDSEC
0
SECTION
2
TABLES
0
TABLE
2
VPORT
5
8
100
AcDbSymbolTable
0
ENDTAB
0
TABLE
2
LTYPE
5
5
100
AcDbSymbolTable
0
LTYPE
5
14
100
AcDbSymbolTableRecord
100
AcDbLinetypeTableRecord
2
BYBLOCK
70
0
0
LTYPE
5
15
100
AcDbSymbolTableRecord
100
AcDbLinetypeTableRecord
2
BYLAYER
70
0
0
ENDTAB
0
TABLE
2
LAYER
5
2
100
AcDbSymbolTable
70
2
0
LAYER
5
50
100
AcDbSymbolTableRecord
100
AcDbLayerTableRecord
2
0
70
0
6
CONTINUOUS
0
ENDTAB
0
TABLE
2
STYLE
5
3
100
AcDbSymbolTable
70
1
0
STYLE
5
11
100
AcDbSymbolTableRecord
100
AcDbTextStyleTableRecord
2
STANDARD
70
0
0
ENDTAB
0
TABLE
2
VIEW
5
6
100
AcDbSymbolTable
70
0
0
ENDTAB
0
TABLE
2
UCS
5
7
100
AcDbSymbolTable
70
0
0
ENDTAB
0
TABLE
2
APPID
5
9
100
AcDbSymbolTable
70
2
0
APPID
5
12
100
AcDbSymbolTableRecord
100
AcDbRegAppTableRecord
2
ACAD
70
0
0
ENDTAB
0
TABLE
2
DIMSTYLE
5
A
100
AcDbSymbolTable
70
1
0
ENDTAB
0
TABLE
2
BLOCK_RECORD
5
1
100
AcDbSymbolTable
70
1
0
BLOCK_RECORD
5
1F
100
AcDbSymbolTableRecord
100
AcDbBlockTableRecord
2
*MODEL_SPACE
0
BLOCK_RECORD
5
1B
100
AcDbSymbolTableRecord
100
AcDbBlockTableRecord
2
*PAPER_SPACE
0
ENDTAB
0
ENDSEC
0
SECTION
2
BLOCKS
0
BLOCK
5
20
100
AcDbEntity
100
AcDbBlockBegin
2
*MODEL_SPACE
0
ENDBLK
5
21
100
AcDbEntity
100
AcDbBlockEnd
0
BLOCK
5
1C
100
AcDbEntity
100
AcDbBlockBegin
2
*PAPER_SPACE
0
ENDBLK
5
1D
100
AcDbEntity
100
AcDbBlockEnd
0
ENDSEC
0
SECTION
2
ENTITIES
0
LWPOLYLINE
5
100
100
AcDbEntity
8
0
100
AcDbPolyline
90
4
70
1
43
0.0
10
-175
20
0
10
175
20
0
10
175
20
6.0000000000000009
10
-175
20
6.0000000000000009
0
LWPOLYLINE
5
101
100
AcDbEntity
8
0
100
AcDbPolyline
90
50
70
1
43
0.0
10
168.91680282886145
20
6.0000000000000009
10
100
20
6.0000000000000009
10
100
20
0
10
70
20
0
10
70
20
6.0000000000000009
10
-5
20
6.0000000000000009
10
-4.9999999999999991
20
0
10
-35
20
0
10
-35
20
6.0000000000000009
10
-110.02104338214657
20
6.0000000000000009
10
-110.02104338214657
20
0
10
-140.02104338214656
20
0
10
-140.02104338214656
20
6.0000000000000009
10
-175
20
6.0000000000000009
10
-175
20
36
10
-169
20
36
10
-169
20
66
10
-175.02226476339882
20
66
10
-175.02226476339882
20
96
10
-142.52226476339882
20
96
10
-142.52226476339882
20
90.000000000000014
10
-112.52226476339882
20
90.000000000000014
10
-112.52226476339882
20
96.000000000000014
10
-90.022264763398823
20
96.000000000000014
10
-90.022264763398823
20
90.000000000000014
10
-60.022264763398816
20
90.000000000000028
10
-60.022264763398816
20
96.02035767621615
10
-37.522264763398823
20
96.02035767621615
10
-37.522264763398816
20
90.020357676216136
10
-7.522264763398816
20
90.020357676216136
10
-7.522264763398816
20
96.020357676216136
10
14.977735236601184
20
96.02035767621615
10
14.977735236601188
20
90.02035767621615
10
44.977735236601184
20
90.02035767621615
10
44.977735236601184
20
96.02035767621615
10
67.477735236601177
20
96.02035767621615
10
67.477735236601177
20
90.02035767621615
10
97.477735236601177
20
90.020357676216179
10
97.477735236601177
20
96.020357676216165
10
119.97773523660118
20
96.020357676216165
10
119.97773523660118
20
90.02035767621615
10
149.97773523660118
20
90.02035767621615
10
149.97773523660118
20
96.020338209446152
10
174.97773523660118
20
96.00020601455121
10
174.97773523667092
20
64.543054600931924
10
168.9996947603475
20
64.54305460091868
10
168.99969476038075
20
49.543054600918673
10
168.999694760414
20
34.543054600918552
10
175
20
34.543054600918623
10
175
20
6.0000000000000009
0
LINE
5
102
100
AcDbEntity
8
0
100
AcDbLine
10
119.97773523660118
20
96.020357676216165
30
0
11
97.477735236601177
21
96.020357676216165
31
0
0
LINE
5
103
100
AcDbEntity
8
0
100
AcDbLine
10
14.977735236601184
20
96.02035767621615
30
0
11
-7.522264763398816
21
96.020357676216136
31
0
0
LINE
5
104
100
AcDbEntity
8
0
100
AcDbLine
10
-90.022264763398823
20
96.000000000000014
30
0
11
-112.52226476339882
21
96.000000000000014
31
0
0
LWPOLYLINE
5
105
100
AcDbEntity
8
0
100
AcDbPolyline
90
4
70
1
43
0.0
10
-61.966100329206235
20
33.341075143782362
10
69.396533762098514
20
33.341075143782362
10
69.396533762098514
20
65.932310943650393
10
-61.966100329206235
20
65.932310943650393
0
LINE
5
106
100
AcDbEntity
8
0
100
AcDbLine
10
-55.752727308914906
20
42.136693124817995
30
0
11
-61.564460390851742
21
57.136694316910891
31
0
0
LINE
5
107
100
AcDbEntity
8
0
100
AcDbLine
10
-61.564460390851742
20
57.136694316910891
30
0
11
-59.415756383583791
21
57.136694316910891
31
0
0
LINE
5
108
100
AcDbEntity
8
0
100
AcDbLine
10
-59.415756383583791
20
57.136694316910891
30
0
11
-55.51739327018047
21
46.239695673035769
31
0
0
SPLINE
5
109
100
AcDbEntity
8
0
100
AcDbSpline
70
0
71
2
72
6
73
3
74
0
42
0.000000001
43
0.0000000001
44
0.0000000001
40
0
40
0
40
0
40
1
40
1
40
1
10
-55.51739327018047
20
46.239695673035769
30
0
10
-55.04672459666515
20
44.930007581757692
30
0
10
-54.729534903214223
20
43.784031992005495
30
0
0
SPLINE
5
110
100
AcDbEntity
8
0
100
AcDbSpline
70
0
71
2
72
6
73
3
74
0
42
0.000000001
43
0.0000000001
44
0.0000000001
40
0
40
0
40
0
40
1
40
1
40
1
10
-54.729534903214223
20
43.784031992005495
30
0
10
-54.381649413750416
20
45.011863832520632
30
0
10
-53.921213069603688
20
46.239695673035769
30
0
0
LINE
5
111
100
AcDbEntity
8
0
100
AcDbLine
10
-53.921213069603688
20
46.239695673035769
30
0
11
-49.869371572182423
21
57.136694316910891
31
0
0
LINE
5
112
100
AcDbEntity
8
0
100
AcDbLine
10
-49.869371572182423
20
57.136694316910891
30
0
11
-47.843450227425343
21
57.136694316910891
31
0
0
LINE
5
113
100
AcDbEntity
8
0
100
AcDbLine
10
-47.843450227425343
20
57.136694316910891
30
0
11
-53.716574230835683
21
42.136693124817995
31
0
0
LINE
5
114
100
AcDbEntity
8
0
100
AcDbLine
10
-53.716574230835683
20
42.136693124817995
30
0
11
-55.752727308914906
21
42.136693124817995
31
0
0
LINE
5
115
100
AcDbEntity
8
0
100
AcDbLine
10
-45.72544089858318
20
42.136693124817995
30
0
11
-45.72544089858318
21
57.136694316910891
31
0
0
LINE
5
116
100
AcDbEntity
8
0
100
AcDbLine
10
-45.72544089858318
20
57.136694316910891
30
0
11
-43.74044767920757
21
57.136694316910891
31
0
0
LINE
5
117
100
AcDbEntity
8
0
100
AcDbLine
10
-43.74044767920757
20
57.136694316910891
30
0
11
-43.74044767920757
21
42.136693124817995
31
0
0
LINE
5
118
100
AcDbEntity
8
0
100
AcDbLine
10
-43.74044767920757
20
42.136693124817995
30
0
11
-45.72544089858318
21
42.136693124817995
31
0
0
LINE
5
119
100
AcDbEntity
8
0
100
AcDbLine
10
-40.916436830208546
20
46.955928926514773
30
0
11
-39.043995061562306
21
47.11963904385486
31
0
0
SPLINE
5
120
100
AcDbEntity
8
0
100
AcDbSpline
70
0
71
2
72
6
73
3
74
0
42
0.000000001
43
0.0000000001
44
0.0000000001
40
0
40
0
40
0
40
1
40
1
40
1
10
-39.043995061562306
20
47.11963904385486
30
0
10
-38.910978952095753
20
45.994129304932741
30
0
10
-38.424962678597218
20
45.272777204560427
30
0
0
SPLINE
5
121
100
AcDbEntity
8
0
100
AcDbSpline
70
0
71
2
72
6
73
3
74
0
42
0.000000001
43
0.0000000001
44
0.0000000001
40
0
40
0
40
0
40
1
40
1
40
1
10
-38.424962678597218
20
45.272777204560427
30
0
10
-37.938946405098683
20
44.551427488373903
30
0
10
-36.915753999398
20
44.106338148163942
30
0
0
SPLINE
5
122
100
AcDbEntity
8
0
100
AcDbSpline
70
0
71
2
72
6
73
3
74
0
42
0.000000001
43
0.0000000001
44
0.0000000001
40
0
40
0
40
0
40
1
40
1
40
1
10
-36.915753999398
20
44.106338148163942
30
0
10
-35.892561593697316
20
43.661248807953982
30
0
10
-34.613572278664357
20
43.661248807953982
30
0
0
SPLINE
5
123
100
AcDbEntity
8
0
100
AcDbSpline
70
0
71
2
72
6
73
3
74
0
42
0.000000001
43
0.0000000001
44
0.0000000001
40
0
40
0
40
0
40
1
40
1
40
1
10
-34.613572278664357
20
43.661248807953982
30
0
10
-33.477827230141408
20
43.661248807953982
30
0
10
-32.608114400551564
20
43.998904352234987
30
0
0
SPLINE
5
124
100
AcDbEntity
8
0
100
AcDbSpline
70
0
71
2
72
6
73
3
74
0
42
0.000000001
43
0.0000000001
44
0.0000000001
40
0
40
0
40
0
40
1
40
1
40
1
10
-32.608114400551564
20
43.998904352234987
30
0
10
-31.73840157096172
20
44.336557512330202
30
0
10
-31.313775697396046
20
44.924893503235964
30
0
0
SPLINE
5
125
100
AcDbEntity
8
0
100
AcDbSpline
70
0
71
2
72
6
73
3
74
0
42
0.000000001
43
0.0000000001
44
0.0000000001
40
0
40
0
40
0
40
1
40
1
40
1
10
-31.313775697396046
20
44.924893503235964
30
0
10
-30.889149823830373
20
45.513227109955935
30
0
10
-30.889149823830373
20
46.208999280976442
30
0
0
SPLINE
5
126
100
AcDbEntity
8
0
100
AcDbSpline
70
0
71
2
72
6
73
3
74
0
42
0.000000001
43
0.0000000001
44
0.0000000001
40
0
40
0
40
0
40
1
40
1
40
1
10
-30.889149823830373
20
46.208999280976442
30
0
10
-30.889149823830373
20
46.915001993226198
30
0
10
-31.298428693459279
20
47.441945200013308
30
0
0
SPLINE
5
127
100
AcDbEntity
8
0
100
AcDbSpline
70
0
71
2
72
6
73
3
74
0
42
0.000000001
43
0.0000000001
44
0.0000000001
40
0
40
0
40
0
40
1
40
1
40
1
10
-31.298428693459279
20
47.441945200013308
30
0
10
-31.707705178902394
20
47.968890790986208
30
0
10
-32.649041333840138
20
48.32700741772571
30
0
0
SPLINE
5
128
100
AcDbEntity
8
0
100
AcDbSpline
70
0
71
2
72
6
73
3
74
0
42
0.000000001
43
0.0000000001
44
0.0000000001
40
0
40
0
40
0
40
1
40
1
40
1
10
-32.649041333840138
20
48.32700741772571
30
0
10
-33.252726712868458
20
48.562340860413698
30
0
10
-35.319574990914113
20
49.058590059327273
30
0
0
SPLINE
5
129
100
AcDbEntity
8
0
100
AcDbSpline
70
0
71
2
72
6
73
3
74
0
42
0.000000001
43
0.0000000001
44
0.0000000001
40
0
40
0
40
0
40
1
40
1
40
1
10
-35.319574990914113
20
49.058590059327273
30
0
10
-37.386423268959767
20
49.554836874055056
30
0
10
-38.215209165261037
20
49.994810943650393
30
0
0
SPLINE
5
130
100
AcDbEntity
8
0
100
AcDbSpline
70
0
71
2
72
6
73
3
74
0
42
0.000000001
43
0.0000000001
44
0.0000000001
40
0
40
0
40
0
40
1
40
1
40
1
10
-38.215209165261037
20
49.994810943650393
30
0
10
-39.289561429665333
20
50.557567005204348
30
0
10
-39.816504636452443
20
51.391468172120241
30
0
0
SPLINE
5
131
100
AcDbEntity
8
0
100
AcDbSpline
70
0
71
2
72
6
73
3
74
0
42
0.000000001
43
0.0000000001
44
0.0000000001
40
0
40
0
40
0
40
1
40
1
40
1
10
-39.816504636452443
20
51.391468172120241
30
0
10
-40.343450227425343
20
52.22537053112903
30
0
10
-40.343450227425343
20
53.258794670151858
30
0
0
SPLINE
5
132
100
AcDbEntity
8
0
100
AcDbSpline
70
0
71
2
72
6
73
3
74
0
42
0.000000001
43
0.0000000001
44
0.0000000001
40
0
40
0
40
0
40
1
40
1
40
1
10
-40.343450227425343
20
53.258794670151858
30
0
10
-40.343450227425343
20
54.394538526581911
30
0
10
-39.698837915108449
20
55.381919269608645
30
0
0
SPLINE
5
133
100
AcDbEntity
8
0
100
AcDbSpline
70
0
71
2
72
6
73
3
74
0
42
0.000000001
43
0.0000000001
44
0.0000000001
40
0
40
0
40
0
40
1
40
1
40
1
10
-39.698837915108449
20
55.381919269608645
30
0
10
-39.054225602791554
20
56.369300012635378
30
0
10
-37.816163221047169
20
56.88089621548572
30
0
0
SPLINE
5
134
100
AcDbEntity
8
0
100
AcDbSpline
70
0
71
2
72
6
73
3
74
0
42
0.000000001
43
0.0000000001
44
0.0000000001
40
0
40
0
40
0
40
1
40
1
40
1
10
-37.816163221047169
20
56.88089621548572
30
0
10
-36.578100839302785
20
57.392492418336062
30
0
10
-35.063775697396046
20
57.392492418336062
30
0
0
SPLINE
5
135
100
AcDbEntity
8
0
100
AcDbSpline
70
0
71
2
72
6
73
3
74
0
42
0.000000001
43
0.0000000001
44
0.0000000001
40
0
40
0
40
0
40
1
40
1
40
1
10
-35.063775697396046
20
57.392492418336062
30
0
10
-33.395973363564259
20
57.392492418336062
30
0
10
-32.122098127053029
20
56.855316286133913
30
0
0
SPLINE
5
136
100
AcDbEntity
8
0
100
AcDbSpline
70
0
71
2
72
6
73
3
74
0
42
0.000000001
43
0.0000000001
44
0.0000000001
40
0
40
0
40
0
40
1
40
1
40
1
10
-32.122098127053029
20
56.855316286133913
30
0
10
-30.848222890541798
20
56.318140153931765
30
0
10
-30.16268364493633
20
55.274484281586794
30
0
0
SPLINE
5
137
100
AcDbEntity
8
0
100
AcDbSpline
70
0
71
2
72
6
73
3
74
0
42
0.000000001
43
0.0000000001
44
0.0000000001
40
0
40
0
40
0
40
1
40
1
40
1
10
-30.16268364493633
20
55.274484281586794
30
0
10
-29.477144399330861
20
54.230827217148928
30
0
10
-29.425984540627248
20
52.910909776734499
30
0
0
LINE
5
138
100
AcDbEntity
8
0
100
AcDbLine
10
-29.425984540627248
20
52.910909776734499
30
0
11
-31.329122701332814
21
52.767661933945803
31
0
0
SPLINE
5
139
100
AcDbEntity
8
0
100
AcDbSpline
70
0
71
2
72
6
73
3
74
0
42
0.000000001
43
0.0000000001
44
0.0000000001
40
0
40
0
40
0
40
1
40
1
40
1
10
-31.329122701332814
20
52.767661933945803
30
0
10
-31.482602277443654
20
54.189900283860354
30
0
10
-32.367664495156056
20
54.916366462754397
30
0
0
SPLINE
5
140
100
AcDbEntity
8
0
100
AcDbSpline
70
0
71
2
72
6
73
3
74
0
42
0.000000001
43
0.0000000001
44
0.0000000001
40
0
40
0
40
0
40
1
40
1
40
1
10
-32.367664495156056
20
54.916366462754397
30
0
10
-33.252726712868458
20
55.64283264164844
30
0
10
-34.981919446633107
20
55.64283264164844
30
0
0
SPLINE
5
141
100
AcDbEntity
8
0
100
AcDbSpline
70
0
71
2
72
6
73
3
74
0
42
0.000000001
43
0.0000000001
44
0.0000000001
40
0
40
0
40
0
40
1
40
1
40
1
10
-34.981919446633107
20
55.64283264164844
30
0
10
-36.782740274117238
20
55.64283264164844
30
0
10
-37.606409707710988
20
54.982874517487673
30
0
0
SPLINE
5
142
100
AcDbEntity
8
0
100
AcDbSpline
70
0
71
2
72
6
73
3
74
0
42
0.000000001
43
0.0000000001
44
0.0000000001
40
0
40
0
40
0
40
1
40
1
40
1
10
-37.606409707710988
20
54.982874517487673
30
0
10
-38.430079141304738
20
54.322915201234011
30
0
10
-38.430079141304738
20
53.391809587525515
30
0
0
SPLINE
5
143
100
AcDbEntity
8
0
100
AcDbSpline
70
0
71
2
72
6
73
3
74
0
42
0.000000001
43
0.0000000001
44
0.0000000001
40
0
40
0
40
0
40
1
40
1
40
1
10
-38.430079141304738
20
53.391809587525515
30
0
10
-38.430079141304738
20
52.583488349961428
30
0
10
-37.846859613106496
20
52.061659221696047
30
0
0
SPLINE
5
144
100
AcDbEntity
8
0
100
AcDbSpline
70
0
71
2
72
6
73
3
74
0
42
0.000000001
43
0.0000000001
44
0.0000000001
40
0
40
0
40
0
40
1
40
1
40
1
10
-37.846859613106496
20
52.061659221696047
30
0
10
-37.273870626137501
20
51.539831285523562
30
0
10
-34.854022184059865
20
50.99242341999927
30
0
0
SPLINE
5
145
100
AcDbEntity
8
0
100
AcDbSpline
70
0
71
2
72
6
73
3
74
0
42
0.000000001
43
0.0000000001
44
0.0000000001
40
0
40
0
40
0
40
1
40
1
40
1
10
-34.854022184059865
20
50.99242341999927
30
0
10
-32.434171357796437
20
50.445015554474978
30
0
10
-31.533762136147267
20
50.035739069031862
30
0
0
SPLINE
5
146
100
AcDbEntity
8
0
100
AcDbSpline
70
0
71
2
72
6
73
3
74
0
42
0.000000001
43
0.0000000001
44
0.0000000001
40
0
40
0
40
0
40
1
40
1
40
1
10
-31.533762136147267
20
50.035739069031862
30
0
10
-30.224076429054982
20
49.432056074189333
30
0
10
-29.599929967568166
20
48.506066923188357
30
0
0
SPLINE
5
147
100
AcDbEntity
8
0
100
AcDbSpline
70
0
71
2
72
6
73
3
74
0
42
0.000000001
43
0.0000000001
44
0.0000000001
40
0
40
0
40
0
40
1
40
1
40
1
10
-29.599929967568166
20
48.506066923188357
30
0
10
-28.975781121895558
20
47.58007777218738
30
0
10
-28.975781121895558
20
46.37270939831653
30
0
0
SPLINE
5
148
100
AcDbEntity
8
0
100
AcDbSpline
70
0
71
2
72
6
73
3
74
0
42
0.000000001
43
0.0000000001
44
0.0000000001
40
0
40
0
40
0
40
1
40
1
40
1
10
-28.975781121895558
20
46.37270939831653
30
0
10
-28.975781121895558
20
45.17557394986072
30
0
10
-29.661320367501027
20
44.116571073578982
30
0
0
SPLINE
5
149
100
AcDbEntity
8
0
100
AcDbSpline
70
0
71
2
72
6
73
3
74
0
42
0.000000001
43
0.0000000001
44
0.0000000001
40
0
40
0
40
0
40
1
40
1
40
1
10
-29.661320367501027
20
44.116571073578982
30
0
10
-30.346859613106496
20
43.057565813111452
30
0
10
-31.630965390846974
20
42.469229822205691
30
0
0
SPLINE
5
150
100
AcDbEntity
8
0
100
AcDbSpline
70
0
71
2
72
6
73
3
74
0
42
0.000000001
43
0.0000000001
44
0.0000000001
40
0
40
0
40
0
40
1
40
1
40
1
10
-31.630965390846974
20
42.469229822205691
30
0
10
-32.915073552773244
20
41.88089621548572
30
0
10
-34.521485486672169
20
41.88089621548572
30
0
0
SPLINE
5
151
100
AcDbEntity
8
0
100
AcDbSpline
70
0
71
2
72
6
73
3
74
0
42
0.000000001
43
0.0000000001
44
0.0000000001
40
0
40
0
40
0
40
1
40
1
40
1
10
-34.521485486672169
20
41.88089621548572
30
0
10
-36.557637372658498
20
41.88089621548572
30
0
10
-37.933829942391164
20
42.47434628491321
30
0
0
SPLINE
5
152
100
AcDbEntity
8
0
100
AcDbSpline
70
0
71
2
72
6
73
3
74
0
42
0.000000001
43
0.0000000001
44
0.0000000001
40
0
40
0
40
0
40
1
40
1
40
1
10
-37.933829942391164
20
42.47434628491321
30
0
10
-39.310024896309621
20
43.067798738526491
30
0
10
-40.092767396614796
20
44.259817724274782
30
0
0
SPLINE
5
153
100
AcDbEntity
8
0
100
AcDbSpline
70
0
71
2
72
6
73
3
74
0
42
0.000000001
43
0.0000000001
44
0.0000000001
40
0
40
0
40
0
40
1
40
1
40
1
10
-40.092767396614796
20
44.259817724274782
30
0
10
-40.875509896919972
20
45.451836710023073
30
0
10
-40.916436830208546
20
46.955928926514773
30
0
0
LINE
5
154
100
AcDbEntity
8
0
100
AcDbLine
10
-22.447813668892628
20
42.136693124817995
30
0
11
-22.447813668892628
21
55.366571073578982
31
0
0
LINE
5
155
100
AcDbEntity
8
0
100
AcDbLine
10
-22.447813668892628
20
55.366571073578982
30
0
11
-27.389832654640919
21
55.366571073578982
31
0
0
LINE
5
156
100
AcDbEntity
8
0
100
AcDbLine
10
-27.389832654640919
20
55.366571073578982
30
0
11
-27.389832654640919
21
57.136694316910891
31
0
0
LINE
5
157
100
AcDbEntity
8
0
100
AcDbLine
10
-27.389832654640919
20
57.136694316910891
30
0
11
-15.500336805031543
21
57.136694316910891
31
0
0
LINE
5
158
100
AcDbEntity
8
0
100
AcDbLine
10
-15.500336805031543
20
57.136694316910891
30
0
11
-15.500336805031543
21
55.366571073578982
31
0
0
LINE
5
159
100
AcDbEntity
8
0
100
AcDbLine
10
-15.500336805031543
20
55.366571073578982
30
0
11
-20.462819257424123
21
55.366571073578982
31
0
0
LINE
5
160
100
AcDbEntity
8
0
100
AcDbLine
10
-20.462819257424123
20
55.366571073578982
30
0
11
-20.462819257424123
21
42.136693124817995
31
0
0
LINE
5
161
100
AcDbEntity
8
0
100
AcDbLine
10
-20.462819257424123
20
42.136693124817995
30
0
11
-22.447813668892628
21
42.136693124817995
31
0
0
LINE
5
162
100
AcDbEntity
8
0
100
AcDbLine
10
-13.42325798575664
20
42.136693124817995
30
0
11
-13.42325798575664
21
57.136694316910891
31
0
0
LINE
5
163
100
AcDbEntity
8
0
100
AcDbLine
10
-13.42325798575664
20
57.136694316910891
30
0
11
-2.577415624306445
21
57.136694316910891
31
0
0
LINE
5
164
100
AcDbEntity
8
0
100
AcDbLine
10
-2.577415624306445
20
57.136694316910891
30
0
11
-2.577415624306445
21
55.366571073578982
31
0
0
LINE
5
165
100
AcDbEntity
8
0
100
AcDbLine
10
-2.577415624306445
20
55.366571073578982
30
0
11
-11.438265958473925
21
55.366571073578982
31
0
0
LINE
5
166
100
AcDbEntity
8
0
100
AcDbLine
10
-11.438265958473925
20
55.366571073578982
30
0
11
-11.438265958473925
21
50.772436981248049
31
0
0
LINE
5
167
100
AcDbEntity
8
0
100
AcDbLine
10
-11.438265958473925
20
50.772436981248049
30
0
11
-3.1401740700461911
21
50.772436981248049
31
0
0
LINE
5
168
100
AcDbEntity
8
0
100
AcDbLine
10
-3.1401740700461911
20
50.772436981248049
30
0
11
-3.1401740700461911
21
49.012546663331179
31
0
0
LINE
5
169
100
AcDbEntity
8
0
100
AcDbLine
10
-3.1401740700461911
20
49.012546663331179
30
0
11
-11.438265958473925
21
49.012546663331179
31
0
0
LINE
5
170
100
AcDbEntity
8
0
100
AcDbLine
10
-11.438265958473925
20
49.012546663331179
30
0
11
-11.438265958473925
21
43.906815176057009
31
0
0
LINE
5
171
100
AcDbEntity
8
0
100
AcDbLine
10
-11.438265958473925
20
43.906815176057009
30
0
11
-2.2295343071677731
21
43.906815176057009
31
0
0
LINE
5
172
100
AcDbEntity
8
0
100
AcDbLine
10
-2.2295343071677731
20
43.906815176057009
30
0
11
-2.2295343071677731
21
42.136693124817995
31
0
0
LINE
5
173
100
AcDbEntity
8
0
100
AcDbLine
10
-2.2295343071677731
20
42.136693124817995
30
0
11
-13.42325798575664
21
42.136693124817995
31
0
0
LINE
5
174
100
AcDbEntity
8
0
100
AcDbLine
10
11.215213617636914
20
47.395901804017214
30
0
11
13.200210413291211
21
46.894538526581911
31
0
0
SPLINE
5
175
100
AcDbEntity
8
0
100
AcDbSpline
70
0
71
2
72
6
73
3
74
0
42
0.000000001
43
0.0000000001
44
0.0000000001
40
0
40
0
40
0
40
1
40
1
40
1
10
13.200210413291211
20
46.894538526581911
30
0
10
12.576063951804395
20
44.449107770966677
30
0
10
10.95430262978291
20
43.165001993226198
30
0
0
SPLINE
5
176
100
AcDbEntity
8
0
100
AcDbSpline
70
0
71
2
72
6
73
3
74
0
42
0.000000001
43
0.0000000001
44
0.0000000001
40
0
40
0
40
0
40
1
40
1
40
1
10
10.95430262978291
20
43.165001993226198
30
0
10
9.3325413077614261
20
41.88089621548572
30
0
10
6.9894302695534183
20
41.88089621548572
30
0
0
SPLINE
5
177
100
AcDbEntity
8
0
100
AcDbSpline
70
0
71
2
72
6
73
3
74
0
42
0.000000001
43
0.0000000001
44
0.0000000001
40
0
40
0
40
0
40
1
40
1
40
1
10
6.9894302695534183
20
41.88089621548572
30
0
10
4.564465364768262
20
41.88089621548572
30
0
10
3.0450237601540042
20
42.868275766419558
30
0
0
SPLINE
5
178
100
AcDbEntity
8
0
100
AcDbSpline
70
0
71
2
72
6
73
3
74
0
42
0.000000001
43
0.0000000001
44
0.0000000001
40
0
40
0
40
0
40
1
40
1
40
1
10
3.0450237601540042
20
42.868275766419558
30
0
10
1.5255821555397464
20
43.855655317353396
30
0
10
0.7326114981911136
20
45.728099470185427
30
0
0
SPLINE
5
179
100
AcDbEntity
8
0
100
AcDbSpline
70
0
71
2
72
6
73
3
74
0
42
0.000000001
43
0.0000000001
44
0.0000000001
40
0
40
0
40
0
40
1
40
1
40
1
10
0.7326114981911136
20
45.728099470185427
30
0
10
-0.060363927529101247
20
47.600541238831667
30
0
10
-0.060363927529101247
20
49.74924338345447
30
0
0
SPLINE
5
180
100
AcDbEntity
8
0
100
AcDbSpline
70
0
71
2
72
6
73
3
74
0
42
0.000000001
43
0.0000000001
44
0.0000000001
40
0
40
0
40
0
40
1
40
1
40
1
10
-0.060363927529101247
20
49.74924338345447
30
0
10
-0.060363927529101247
20
52.092355613755373
30
0
10
0.83493121559834016
20
53.836898927735476
30
0
0
SPLINE
5
181
100
AcDbEntity
8
0
100
AcDbSpline
70
0
71
2
72
6
73
3
74
0
42
0.000000001
43
0.0000000001
44
0.0000000001
40
0
40
0
40
0
40
1
40
1
40
1
10
0.83493121559834016
20
53.836898927735476
30
0
10
1.7302215903541995
20
55.581441049622683
30
0
10
3.3826769202492191
20
56.486966733979372
30
0
0
SPLINE
5
182
100
AcDbEntity
8
0
100
AcDbSpline
70
0
71
2
72
6
73
3
74
0
42
0.000000001
43
0.0000000001
44
0.0000000001
40
0
40
0
40
0
40
1
40
1
40
1
10
3.3826769202492191
20
56.486966733979372
30
0
10
5.0351370185158206
20
57.392492418336062
30
0
10
7.0201290457985355
20
57.392492418336062
30
0
0
SPLINE
5
183
100
AcDbEntity
8
0
100
AcDbSpline
70
0
71
2
72
6
73
3
74
0
42
0.000000001
43
0.0000000001
44
0.0000000001
40
0
40
0
40
0
40
1
40
1
40
1
10
7.0201290457985355
20
57.392492418336062
30
0
10
9.2711485236427738
20
57.392492418336062
30
0
10
10.80593951637959
20
56.246516828583864
30
0
0
SPLINE
5
184
100
AcDbEntity
8
0
100
AcDbSpline
70
0
71
2
72
6
73
3
74
0
42
0.000000001
43
0.0000000001
44
0.0000000001
40
0
40
0
40
0
40
1
40
1
40
1
10
10.80593951637959
20
56.246516828583864
30
0
10
12.340730509116407
20
55.100541238831667
30
0
10
12.944411119773145
20
53.023460035370974
30
0
0
LINE
5
185
100
AcDbEntity
8
0
100
AcDbLine
10
12.944411119773145
20
53.023460035370974
30
0
11
10.990113100363965
21
52.563023691224245
31
0
0
SPLINE
5
186
100
AcDbEntity
8
0
100
AcDbSpline
70
0
71
2
72
6
73
3
74
0
42
0.000000001
43
0.0000000001
44
0.0000000001
40
0
40
0
40
0
40
1
40
1
40
1
10
10.990113100363965
20
52.563023691224245
30
0
10
10.468286356284375
20
54.200132017182497
30
0
10
9.4757879584572269
20
54.947062854813723
30
0
0
SPLINE
5
187
100
AcDbEntity
8
0
100
AcDbSpline
70
0
71
2
72
6
73
3
74
0
42
0.000000001
43
0.0000000001
44
0.0000000001
40
0
40
0
40
0
40
1
40
1
40
1
10
9.4757879584572269
20
54.947062854813723
30
0
10
8.4832943290016605
20
55.693992500352053
30
0
10
6.9792021125099613
20
55.693992500352053
30
0
0
SPLINE
5
188
100
AcDbEntity
8
0
100
AcDbSpline
70
0
71
2
72
6
73
3
74
0
42
0.000000001
43
0.0000000001
44
0.0000000001
40
0
40
0
40
0
40
1
40
1
40
1
10
6.9792021125099613
20
55.693992500352053
30
0
10
5.2500046103737308
20
55.693992500352053
30
0
10
4.0886820166847659
20
54.865206604050783
30
0
0
SPLINE
5
189
100
AcDbEntity
8
0
100
AcDbSpline
70
0
71
2
72
6
73
3
74
0
42
0.000000001
43
0.0000000001
44
0.0000000001
40
0
40
0
40
0
40
1
40
1
40
1
10
4.0886820166847659
20
54.865206604050783
30
0
10
2.9273594229958011
20
54.036420707749514
30
0
10
2.4566877692482425
20
52.639763479279665
30
0
0
SPLINE
5
190
100
AcDbEntity
8
0
100
AcDbSpline
70
0
71
2
72
6
73
3
74
0
42
0.000000001
43
0.0000000001
44
0.0000000001
40
0
40
0
40
0
40
1
40
1
40
1
10
2.4566877692482425
20
52.639763479279665
30
0
10
1.9860208838722659
20
51.243105058716921
30
0
10
1.9860208838722659
20
49.759476308869509
30
0
0
SPLINE
5
191
100
AcDbEntity
8
0
100
AcDbSpline
70
0
71
2
72
6
73
3
74
0
42
0.000000001
43
0.0000000001
44
0.0000000001
40
0
40
0
40
0
40
1
40
1
40
1
10
1.9860208838722659
20
49.759476308869509
30
0
10
1.9860208838722659
20
47.846107606934694
30
0
10
2.5436628669044925
20
46.418752794312624
30
0
0
SPLINE
5
192
100
AcDbEntity
8
0
100
AcDbSpline
70
0
71
2
72
6
73
3
74
0
42
0.000000001
43
0.0000000001
44
0.0000000001
40
0
40
0
40
0
40
1
40
1
40
1
10
2.5436628669044925
20
46.418752794312624
30
0
10
3.101300081565137
20
44.991400365876345
30
0
10
4.2779720633766605
20
44.285397653626589
30
0
0
SPLINE
5
193
100
AcDbEntity
8
0
100
AcDbSpline
70
0
71
2
72
6
73
3
74
0
42
0.000000001
43
0.0000000001
44
0.0000000001
40
0
40
0
40
0
40
1
40
1
40
1
10
4.2779720633766605
20
44.285397653626589
30
0
10
5.4546440451881839
20
43.579394941376833
30
0
10
6.8257225363991214
20
43.579394941376833
30
0
0
SPLINE
5
194
100
AcDbEntity
8
0
100
AcDbSpline
70
0
71
2
72
6
73
3
74
0
42
0.000000001
43
0.0000000001
44
0.0000000001
40
0
40
0
40
0
40
1
40
1
40
1
10
6.8257225363991214
20
43.579394941376833
30
0
10
8.4935224860451175
20
43.579394941376833
30
0
10
9.6497333853981448
20
44.541194562958864
30
0
0
SPLINE
5
195
100
AcDbEntity
8
0
100
AcDbSpline
70
0
71
2
72
6
73
3
74
0
42
0.000000001
43
0.0000000001
44
0.0000000001
40
0
40
0
40
0
40
1
40
1
40
1
10
9.6497333853981448
20
44.541194562958864
30
0
10
10.80593951637959
20
45.502996568726687
30
0
10
11.215213617636914
20
47.395901804017214
30
0
0
LINE
5
196
100
AcDbEntity
8
0
100
AcDbLine
10
15.707033953025098
20
42.136693124817995
30
0
11
15.707033953025098
21
57.136694316910891
31
0
0
LINE
5
197
100
AcDbEntity
8
0
100
AcDbLine
10
15.707033953025098
20
57.136694316910891
30
0
11
17.692025980307811
21
57.136694316910891
31
0
0
LINE
5
198
100
AcDbEntity
8
0
100
AcDbLine
10
17.692025980307811
20
57.136694316910891
30
0
11
17.692025980307811
21
50.977075223969607
31
0
0
LINE
5
199
100
AcDbEntity
8
0
100
AcDbLine
10
17.692025980307811
20
50.977075223969607
30
0
11
25.488752207114452
21
50.977075223969607
31
0
0
LINE
5
200
100
AcDbEntity
8
0
100
AcDbLine
10
25.488752207114452
20
50.977075223969607
30
0
11
25.488752207114452
21
57.136694316910891
31
0
0
LINE
5
201
100
AcDbEntity
8
0
100
AcDbLine
10
25.488752207114452
20
57.136694316910891
30
0
11
27.473749002768749
21
57.136694316910891
31
0
0
LINE
5
202
100
AcDbEntity
8
0
100
AcDbLine
10
27.473749002768749
20
57.136694316910891
30
0
11
27.473749002768749
21
42.136693124817995
31
0
0
LINE
5
203
100
AcDbEntity
8
0
100
AcDbLine
10
27.473749002768749
20
42.136693124817995
30
0
11
25.488752207114452
21
42.136693124817995
31
0
0
LINE
5
204
100
AcDbEntity
8
0
100
AcDbLine
10
25.488752207114452
20
42.136693124817995
30
0
11
25.488752207114452
21
49.206953172730593
31
0
0
LINE
5
205
100
AcDbEntity
8
0
100
AcDbLine
10
25.488752207114452
20
49.206953172730593
30
0
11
17.692025980307811
21
49.206953172730593
31
0
0
LINE
5
206
100
AcDbEntity
8
0
100
AcDbLine
10
17.692025980307811
20
49.206953172730593
30
0
11
17.692025980307811
21
42.136693124817995
31
0
0
LINE
5
207
100
AcDbEntity
8
0
100
AcDbLine
10
17.692025980307811
20
42.136693124817995
30
0
11
15.707033953025098
21
42.136693124817995
31
0
0
SPLINE
5
208
100
AcDbEntity
8
0
100
AcDbSpline
70
0
71
2
72
6
73
3
74
0
42
0.000000001
43
0.0000000001
44
0.0000000001
40
0
40
0
40
0
40
1
40
1
40
1
10
35.853685221030467
20
49.53437579159656
30
0
10
35.853685221030467
20
52.194674139069704
30
0
10
36.401094278647655
20
53.816434268998293
30
0
0
SPLINE
5
209
100
AcDbEntity
8
0
100
AcDbSpline
70
0
71
2
72
6
73
3
74
0
42
0.000000001
43
0.0000000001
44
0.0000000001
40
0
40
0
40
0
40
1
40
1
40
1
10
36.401094278647655
20
53.816434268998293
30
0
10
36.948503336264842
20
55.438194398926882
30
0
10
38.027967295005077
20
56.318140153931765
30
0
0
SPLINE
5
210
100
AcDbEntity
8
0
100
AcDbSpline
70
0
71
2
72
6
73
3
74
0
42
0.000000001
43
0.0000000001
44
0.0000000001
40
0
40
0
40
0
40
1
40
1
40
1
10
38.027967295005077
20
56.318140153931765
30
0
10
39.107440790488475
20
57.198085908936648
30
0
10
40.744546732260936
20
57.198085908936648
30
0
0
SPLINE
5
211
100
AcDbEntity
8
0
100
AcDbSpline
70
0
71
2
72
6
73
3
74
0
42
0.000000001
43
0.0000000001
44
0.0000000001
40
0
40
0
40
0
40
1
40
1
40
1
10
40.744546732260936
20
57.198085908936648
30
0
10
41.951907953574413
20
57.198085908936648
30
0
10
42.862552484824413
20
56.712069635438112
30
0
0
SPLINE
5
212
100
AcDbEntity
8
0
100
AcDbSpline
70
0
71
2
72
6
73
3
74
0
42
0.000000001
43
0.0000000001
44
0.0000000001
40
0
40
0
40
0
40
1
40
1
40
1
10
42.862552484824413
20
56.712069635438112
30
0
10
43.773197016074413
20
56.226053361939577
30
0
10
44.366649469687694
20
55.310295944260744
30
0
0
SPLINE
5
213
100
AcDbEntity
8
0
100
AcDbSpline
70
0
71
2
72
6
73
3
74
0
42
0.000000001
43
0.0000000001
44
0.0000000001
40
0
40
0
40
0
40
1
40
1
40
1
10
44.366649469687694
20
55.310295944260744
30
0
10
44.960101923300975
20
54.394538526581911
30
0
10
45.297750315024608
20
53.079736356782107
30
0
0
SPLINE
5
214
100
AcDbEntity
8
0
100
AcDbSpline
70
0
71
2
72
6
73
3
74
0
42
0.000000001
43
0.0000000001
44
0.0000000001
40
0
40
0
40
0
40
1
40
1
40
1
10
45.297750315024608
20
53.079736356782107
30
0
10
45.635408243491405
20
51.764934186982302
30
0
10
45.635408243491405
20
49.53437579159656
30
0
0
SPLINE
5
215
100
AcDbEntity
8
0
100
AcDbSpline
70
0
71
2
72
6
73
3
74
0
42
0.000000001
43
0.0000000001
44
0.0000000001
40
0
40
0
40
0
40
1
40
1
40
1
10
45.635408243491405
20
49.53437579159656
30
0
10
45.635408243491405
20
46.894538526581911
30
0
10
45.093110880210155
20
45.272777204560427
30
0
0
SPLINE
5
216
100
AcDbEntity
8
0
100
AcDbSpline
70
0
71
2
72
6
73
3
74
0
42
0.000000001
43
0.0000000001
44
0.0000000001
40
0
40
0
40
0
40
1
40
1
40
1
10
45.093110880210155
20
45.272777204560427
30
0
10
44.550823053672069
20
43.651018266724734
30
0
10
43.47134955818867
20
42.765956049012331
30
0
0
SPLINE
5
217
100
AcDbEntity
8
0
100
AcDbSpline
70
0
71
2
72
6
73
3
74
0
42
0.000000001
43
0.0000000001
44
0.0000000001
40
0
40
0
40
0
40
1
40
1
40
1
10
43.47134955818867
20
42.765956049012331
30
0
10
42.391885599448436
20
41.88089621548572
30
0
10
40.744546732260936
20
41.88089621548572
30
0
0
SPLINE
5
218
100
AcDbEntity
8
0
100
AcDbSpline
70
0
71
2
72
6
73
3
74
0
42
0.000000001
43
0.0000000001
44
0.0000000001
40
0
40
0
40
0
40
1
40
1
40
1
10
40.744546732260936
20
41.88089621548572
30
0
10
38.575376352622264
20
41.88089621548572
30
0
10
37.33731635506367
20
43.436148290681032
30
0
0
SPLINE
5
219
100
AcDbEntity
8
0
100
AcDbSpline
70
0
71
2
72
6
73
3
74
0
42
0.000000001
43
0.0000000001
44
0.0000000001
40
0
40
0
40
0
40
1
40
1
40
1
10
37.33731635506367
20
43.436148290681032
30
0
10
35.853685221030467
20
45.308590059327273
30
0
10
35.853685221030467
20
49.53437579159656
30
0
0
SPLINE
5
220
100
AcDbEntity
8
0
100
AcDbSpline
70
0
71
2
72
6
73
3
74
0
42
0.000000001
43
0.0000000001
44
0.0000000001
40
0
40
0
40
0
40
1
40
1
40
1
10
37.746595224692577
20
49.53437579159656
30
0
10
37.746595224692577
20
45.840649728821901
30
0
10
38.611186823203319
20
44.617934351014284
30
0
0
SPLINE
5
221
100
AcDbEntity
8
0
100
AcDbSpline
70
0
71
2
72
6
73
3
74
0
42
0.000000001
43
0.0000000001
44
0.0000000001
40
0
40
0
40
0
40
1
40
1
40
1
10
38.611186823203319
20
44.617934351014284
30
0
10
39.475787958457225
20
43.395218973206667
30
0
10
40.744546732260936
20
43.395218973206667
30
0
0
SPLINE
5
222
100
AcDbEntity
8
0
100
AcDbSpline
70
0
71
2
72
6
73
3
74
0
42
0.000000001
43
0.0000000001
44
0.0000000001
40
0
40
0
40
0
40
1
40
1
40
1
10
40.744546732260936
20
43.395218973206667
30
0
10
42.013305506064647
20
43.395218973206667
30
0
10
42.877897104575389
20
44.623050813721804
30
0
0
SPLINE
5
223
100
AcDbEntity
8
0
100
AcDbSpline
70
0
71
2
72
6
73
3
74
0
42
0.000000001
43
0.0000000001
44
0.0000000001
40
0
40
0
40
0
40
1
40
1
40
1
10
42.877897104575389
20
44.623050813721804
30
0
10
43.742498239829295
20
45.850882654236941
30
0
10
43.742498239829295
20
49.53437579159656
30
0
0
SPLINE
5
224
100
AcDbEntity
8
0
100
AcDbSpline
70
0
71
2
72
6
73
3
74
0
42
0.000000001
43
0.0000000001
44
0.0000000001
40
0
40
0
40
0
40
1
40
1
40
1
10
43.742498239829295
20
49.53437579159656
30
0
10
43.742498239829295
20
53.23833120350757
30
0
10
42.877897104575389
20
54.455930118607668
30
0
0
SPLINE
5
225
100
AcDbEntity
8
0
100
AcDbSpline
70
0
71
2
72
6
73
3
74
0
42
0.000000001
43
0.0000000001
44
0.0000000001
40
0
40
0
40
0
40
1
40
1
40
1
10
42.877897104575389
20
54.455930118607668
30
0
10
42.013305506064647
20
55.673529033707766
30
0
10
40.724080881430858
20
55.673529033707766
30
0
0
SPLINE
5
226
100
AcDbEntity
8
0
100
AcDbSpline
70
0
71
2
72
6
73
3
74
0
42
0.000000001
43
0.0000000001
44
0.0000000001
40
0
40
0
40
0
40
1
40
1
40
1
10
40.724080881430858
20
55.673529033707766
30
0
10
39.455322107627147
20
55.673529033707766
30
0
10
38.698161920859569
20
54.599176769303469
30
0
0
SPLINE
5
227
100
AcDbEntity
8
0
100
AcDbSpline
70
0
71
2
72
6
73
3
74
0
42
0.000000001
43
0.0000000001
44
0.0000000001
40
0
40
0
40
0
40
1
40
1
40
1
10
38.698161920859569
20
54.599176769303469
30
0
10
37.746595224692577
20
53.228099470185427
30
0
10
37.746595224692577
20
49.53437579159656
30
0
0
SPLINE
5
228
100
AcDbEntity
8
0
100
AcDbSpline
70
0
71
2
72
6
73
3
74
0
42
0.000000001
43
0.0000000001
44
0.0000000001
40
0
40
0
40
0
40
1
40
1
40
1
10
47.507852396323436
20
49.53437579159656
30
0
10
47.507852396323436
20
52.194674139069704
30
0
10
48.055261453940624
20
53.816434268998293
30
0
0
SPLINE
5
229
100
AcDbEntity
8
0
100
AcDbSpline
70
0
71
2
72
6
73
3
74
0
42
0.000000001
43
0.0000000001
44
0.0000000001
40
0
40
0
40
0
40
1
40
1
40
1
10
48.055261453940624
20
53.816434268998293
30
0
10
48.602670511557811
20
55.438194398926882
30
0
10
49.682134470298045
20
56.318140153931765
30
0
0
SPLINE
5
230
100
AcDbEntity
8
0
100
AcDbSpline
70
0
71
2
72
6
73
3
74
0
42
0.000000001
43
0.0000000001
44
0.0000000001
40
0
40
0
40
0
40
1
40
1
40
1
10
49.682134470298045
20
56.318140153931765
30
0
10
50.761607965781444
20
57.198085908936648
30
0
10
52.398713907553905
20
57.198085908936648
30
0
0
SPLINE
5
231
100
AcDbEntity
8
0
100
AcDbSpline
70
0
71
2
72
6
73
3
74
0
42
0.000000001
43
0.0000000001
44
0.0000000001
40
0
40
0
40
0
40
1
40
1
40
1
10
52.398713907553905
20
57.198085908936648
30
0
10
53.606075128867381
20
57.198085908936648
30
0
10
54.516719660117381
20
56.712069635438112
30
0
0
SPLINE
5
232
100
AcDbEntity
8
0
100
AcDbSpline
70
0
71
2
72
6
73
3
74
0
42
0.000000001
43
0.0000000001
44
0.0000000001
40
0
40
0
40
0
40
1
40
1
40
1
10
54.516719660117381
20
56.712069635438112
30
0
10
55.427364191367381
20
56.226053361939577
30
0
10
56.020816644980663
20
55.310295944260744
30
0
0
SPLINE
5
233
100
AcDbEntity
8
0
100
AcDbSpline
70
0
71
2
72
6
73
3
74
0
42
0.000000001
43
0.0000000001
44
0.0000000001
40
0
40
0
40
0
40
1
40
1
40
1
10
56.020816644980663
20
55.310295944260744
30
0
10
56.614269098593944
20
54.394538526581911
30
0
10
56.951917490317577
20
53.079736356782107
30
0
0
SPLINE
5
234
100
AcDbEntity
8
0
100
AcDbSpline
70
0
71
2
72
6
73
3
74
0
42
0.000000001
43
0.0000000001
44
0.0000000001
40
0
40
0
40
0
40
1
40
1
40
1
10
56.951917490317577
20
53.079736356782107
30
0
10
57.289575418784374
20
51.764934186982302
30
0
10
57.289575418784374
20
49.53437579159656
30
0
0
SPLINE
5
235
100
AcDbEntity
8
0
100
AcDbSpline
70
0
71
2
72
6
73
3
74
0
42
0.000000001
43
0.0000000001
44
0.0000000001
40
0
40
0
40
0
40
1
40
1
40
1
10
57.289575418784374
20
49.53437579159656
30
0
10
57.289575418784374
20
46.894538526581911
30
0
10
56.747278055503124
20
45.272777204560427
30
0
0
SPLINE
5
236
100
AcDbEntity
8
0
100
AcDbSpline
70
0
71
2
72
6
73
3
74
0
42
0.000000001
43
0.0000000001
44
0.0000000001
40
0
40
0
40
0
40
1
40
1
40
1
10
56.747278055503124
20
45.272777204560427
30
0
10
56.204990228965038
20
43.651018266724734
30
0
10
55.125516733481639
20
42.765956049012331
30
0
0
SPLINE
5
237
100
AcDbEntity
8
0
100
AcDbSpline
70
0
71
2
72
6
73
3
74
0
42
0.000000001
43
0.0000000001
44
0.0000000001
40
0
40
0
40
0
40
1
40
1
40
1
10
55.125516733481639
20
42.765956049012331
30
0
10
54.046052774741405
20
41.88089621548572
30
0
10
52.398713907553905
20
41.88089621548572
30
0
0
SPLINE
5
238
100
AcDbEntity
8
0
100
AcDbSpline
70
0
71
2
72
6
73
3
74
0
42
0.000000001
43
0.0000000001
44
0.0000000001
40
0
40
0
40
0
40
1
40
1
40
1
10
52.398713907553905
20
41.88089621548572
30
0
10
50.229543527915233
20
41.88089621548572
30
0
10
48.991483530356639
20
43.436148290681032
30
0
0
SPLINE
5
239
100
AcDbEntity
8
0
100
AcDbSpline
70
0
71
2
72
6
73
3
74
0
42
0.000000001
43
0.0000000001
44
0.0000000001
40
0
40
0
40
0
40
1
40
1
40
1
10
48.991483530356639
20
43.436148290681032
30
0
10
47.507852396323436
20
45.308590059327273
30
0
10
47.507852396323436
20
49.53437579159656
30
0
0
SPLINE
5
240
100
AcDbEntity
8
0
100
AcDbSpline
70
0
71
2
72
6
73
3
74
0
42
0.000000001
43
0.0000000001
44
0.0000000001
40
0
40
0
40
0
40
1
40
1
40
1
10
49.400762399985545
20
49.53437579159656
30
0
10
49.400762399985545
20
45.840649728821901
30
0
10
50.265353998496288
20
44.617934351014284
30
0
0
SPLINE
5
241
100
AcDbEntity
8
0
100
AcDbSpline
70
0
71
2
72
6
73
3
74
0
42
0.000000001
43
0.0000000001
44
0.0000000001
40
0
40
0
40
0
40
1
40
1
40
1
10
50.265353998496288
20
44.617934351014284
30
0
10
51.129955133750194
20
43.395218973206667
30
0
10
52.398713907553905
20
43.395218973206667
30
0
0
SPLINE
5
242
100
AcDbEntity
8
0
100
AcDbSpline
70
0
71
2
72
6
73
3
74
0
42
0.000000001
43
0.0000000001
44
0.0000000001
40
0
40
0
40
0
40
1
40
1
40
1
10
52.398713907553905
20
43.395218973206667
30
0
10
53.667472681357616
20
43.395218973206667
30
0
10
54.532064279868358
20
44.623050813721804
30
0
0
SPLINE
5
243
100
AcDbEntity
8
0
100
AcDbSpline
70
0
71
2
72
6
73
3
74
0
42
0.000000001
43
0.0000000001
44
0.0000000001
40
0
40
0
40
0
40
1
40
1
40
1
10
54.532064279868358
20
44.623050813721804
30
0
10
55.396665415122264
20
45.850882654236941
30
0
10
55.396665415122264
20
49.53437579159656
30
0
0
SPLINE
5
244
100
AcDbEntity
8
0
100
AcDbSpline
70
0
71
2
72
6
73
3
74
0
42
0.000000001
43
0.0000000001
44
0.0000000001
40
0
40
0
40
0
40
1
40
1
40
1
10
55.396665415122264
20
49.53437579159656
30
0
10
55.396665415122264
20
53.23833120350757
30
0
10
54.532064279868358
20
54.455930118607668
30
0
0
SPLINE
5
245
100
AcDbEntity
8
0
100
AcDbSpline
70
0
71
2
72
6
73
3
74
0
42
0.000000001
43
0.0000000001
44
0.0000000001
40
0
40
0
40
0
40
1
40
1
40
1
10
54.532064279868358
20
54.455930118607668
30
0
10
53.667472681357616
20
55.673529033707766
30
0
10
52.378248056723827
20
55.673529033707766
30
0
0
SPLINE
5
246
100
AcDbEntity
8
0
100
AcDbSpline
70
0
71
2
72
6
73
3
74
0
42
0.000000001
43
0.0000000001
44
0.0000000001
40
0
40
0
40
0
40
1
40
1
40
1
10
52.378248056723827
20
55.673529033707766
30
0
10
51.109489282920116
20
55.673529033707766
30
0
10
50.352329096152538
20
54.599176769303469
30
0
0
SPLINE
5
247
100
AcDbEntity
8
0
100
AcDbSpline
70
0
71
2
72
6
73
3
74
0
42
0.000000001
43
0.0000000001
44
0.0000000001
40
0
40
0
40
0
40
1
40
1
40
1
10
50.352329096152538
20
54.599176769303469
30
0
10
49.400762399985545
20
53.228099470185427
30
0
10
49.400762399985545
20
49.53437579159656
30
0
0
LINE
5
248
100
AcDbEntity
8
0
100
AcDbLine
10
59.17224296028828
20
46.096446638154177
30
0
11
61.013988336875194
21
46.342013006257204
31
0
0
SPLINE
5
249
100
AcDbEntity
8
0
100
AcDbSpline
70
0
71
2
72
6
73
3
74
0
42
0.000000001
43
0.0000000001
44
0.0000000001
40
0
40
0
40
0
40
1
40
1
40
1
10
61.013988336875194
20
46.342013006257204
30
0
10
61.331180414511913
20
44.776530389832644
30
0
10
62.093461832358592
20
44.085874681519655
30
0
0
SPLINE
5
250
100
AcDbEntity
8
0
100
AcDbSpline
70
0
71
2
72
6
73
3
74
0
42
0.000000001
43
0.0000000001
44
0.0000000001
40
0
40
0
40
0
40
1
40
1
40
1
10
62.093461832358592
20
44.085874681519655
30
0
10
62.855733713462108
20
43.395218973206667
30
0
10
63.950551828696483
20
43.395218973206667
30
0
0
SPLINE
5
251
100
AcDbEntity
8
0
100
AcDbSpline
70
0
71
2
72
6
73
3
74
0
42
0.000000001
43
0.0000000001
44
0.0000000001
40
0
40
0
40
0
40
1
40
1
40
1
10
63.950551828696483
20
43.395218973206667
30
0
10
65.250009378745318
20
43.395218973206667
30
0
10
66.145299753501178
20
44.295628194855837
30
0
0
SPLINE
5
252
100
AcDbEntity
8
0
100
AcDbSpline
70
0
71
2
72
6
73
3
74
0
42
0.000000001
43
0.0000000001
44
0.0000000001
40
0
40
0
40
0
40
1
40
1
40
1
10
66.145299753501178
20
44.295628194855837
30
0
10
67.040590128257037
20
45.196037416505007
30
0
10
67.040590128257037
20
46.52618897442737
30
0
0
SPLINE
5
253
100
AcDbEntity
8
0
100
AcDbSpline
70
0
71
2
72
6
73
3
74
0
42
0.000000001
43
0.0000000001
44
0.0000000001
40
0
40
0
40
0
40
1
40
1
40
1
10
67.040590128257037
20
46.52618897442737
30
0
10
67.040590128257037
20
47.794947748231081
30
0
10
66.211809000327349
20
48.618617181824831
30
0
0
SPLINE
5
254
100
AcDbEntity
8
0
100
AcDbSpline
70
0
71
2
72
6
73
3
74
0
42
0.000000001
43
0.0000000001
44
0.0000000001
40
0
40
0
40
0
40
1
40
1
40
1
10
66.211809000327349
20
48.618617181824831
30
0
10
65.383018335654498
20
49.442286615418581
30
0
10
64.104026636435748
20
49.442286615418581
30
0
0
SPLINE
5
255
100
AcDbEntity
8
0
100
AcDbSpline
70
0
71
2
72
6
73
3
74
0
42
0.000000001
43
0.0000000001
44
0.0000000001
40
0
40
0
40
0
40
1
40
1
40
1
10
64.104026636435748
20
49.442286615418581
30
0
10
63.582204660727733
20
49.442286615418581
30
0
10
62.804578623130077
20
49.237649564789919
30
0
0
LINE
5
256
100
AcDbEntity
8
0
100
AcDbLine
10
62.804578623130077
20
49.237649564789919
30
0
11
63.00921805794453
21
50.854292039918093
31
0
0
SPLINE
5
257
100
AcDbEntity
8
0
100
AcDbSpline
70
0
71
2
72
6
73
3
74
0
42
0.000000001
43
0.0000000001
44
0.0000000001
40
0
40
0
40
0
40
1
40
1
40
1
10
63.00921805794453
20
50.854292039918093
30
0
10
63.193391641928905
20
50.833828573273806
30
0
10
63.30594428475117
20
50.833828573273806
30
0
0
SPLINE
5
258
100
AcDbEntity
8
0
100
AcDbSpline
70
0
71
2
72
6
73
3
74
0
42
0.000000001
43
0.0000000001
44
0.0000000001
40
0
40
0
40
0
40
1
40
1
40
1
10
63.30594428475117
20
50.833828573273806
30
0
10
64.482616266562701
20
50.833828573273806
30
0
10
65.423950037314654
20
51.447744493531374
30
0
0
SPLINE
5
259
100
AcDbEntity
8
0
100
AcDbSpline
70
0
71
2
72
6
73
3
74
0
42
0.000000001
43
0.0000000001
44
0.0000000001
40
0
40
0
40
0
40
1
40
1
40
1
10
65.423950037314654
20
51.447744493531374
30
0
10
66.365283808066607
20
52.061660413788942
30
0
10
66.365283808066607
20
53.340650920914797
30
0
0
SPLINE
5
260
100
AcDbEntity
8
0
100
AcDbSpline
70
0
71
2
72
6
73
3
74
0
42
0.000000001
43
0.0000000001
44
0.0000000001
40
0
40
0
40
0
40
1
40
1
40
1
10
66.365283808066607
20
53.340650920914797
30
0
10
66.365283808066607
20
54.353610401200442
30
0
10
65.679744562461138
20
55.018686180161623
30
0
0
SPLINE
5
261
100
AcDbEntity
8
0
100
AcDbSpline
70
0
71
2
72
6
73
3
74
0
42
0.000000001
43
0.0000000001
44
0.0000000001
40
0
40
0
40
0
40
1
40
1
40
1
10
65.679744562461138
20
55.018686180161623
30
0
10
64.99420531685567
20
55.683760767029909
30
0
10
63.909620127036327
20
55.683760767029909
30
0
0
SPLINE
5
262
100
AcDbEntity
8
0
100
AcDbSpline
70
0
71
2
72
6
73
3
74
0
42
0.000000001
43
0.0000000001
44
0.0000000001
40
0
40
0
40
0
40
1
40
1
40
1
10
63.909620127036327
20
55.683760767029909
30
0
10
62.83526786263203
20
55.683760767029909
30
0
10
62.119039377524608
20
55.00845444683948
30
0
0
SPLINE
5
263
100
AcDbEntity
8
0
100
AcDbSpline
70
0
71
2
72
6
73
3
74
0
42
0.000000001
43
0.0000000001
44
0.0000000001
40
0
40
0
40
0
40
1
40
1
40
1
10
62.119039377524608
20
55.00845444683948
30
0
10
61.402801355674022
20
54.333146934556154
30
0
10
61.198161920859569
20
52.9825331020824
30
0
0
LINE
5
264
100
AcDbEntity
8
0
100
AcDbLine
10
61.198161920859569
20
52.9825331020824
30
0
11
59.356416544272655
21
53.309954528855471
31
0
0
SPLINE
5
265
100
AcDbEntity
8
0
100
AcDbSpline
70
0
71
2
72
6
73
3
74
0
42
0.000000001
43
0.0000000001
44
0.0000000001
40
0
40
0
40
0
40
1
40
1
40
1
10
59.356416544272655
20
53.309954528855471
30
0
10
59.694074472739452
20
55.161932830857424
30
0
10
60.891202768637889
20
56.180008773850588
30
0
0
SPLINE
5
266
100
AcDbEntity
8
0
100
AcDbSpline
70
0
71
2
72
6
73
3
74
0
42
0.000000001
43
0.0000000001
44
0.0000000001
40
0
40
0
40
0
40
1
40
1
40
1
10
60.891202768637889
20
56.180008773850588
30
0
10
62.088340601279491
20
57.198085908936648
30
0
10
63.868697962119334
20
57.198085908936648
30
0
0
SPLINE
5
267
100
AcDbEntity
8
0
100
AcDbSpline
70
0
71
2
72
6
73
3
74
0
42
0.000000001
43
0.0000000001
44
0.0000000001
40
0
40
0
40
0
40
1
40
1
40
1
10
63.868697962119334
20
57.198085908936648
30
0
10
65.096525034262896
20
57.198085908936648
30
0
10
66.129955133750201
20
56.671141510056643
30
0
0
SPLINE
5
268
100
AcDbEntity
8
0
100
AcDbSpline
70
0
71
2
72
6
73
3
74
0
42
0.000000001
43
0.0000000001
44
0.0000000001
40
0
40
0
40
0
40
1
40
1
40
1
10
66.129955133750201
20
56.671141510056643
30
0
10
67.163375696494342
20
56.144197111176638
30
0
10
67.710784754111529
20
55.233556156205324
30
0
0
SPLINE
5
269
100
AcDbEntity
8
0
100
AcDbSpline
70
0
71
2
72
6
73
3
74
0
42
0.000000001
43
0.0000000001
44
0.0000000001
40
0
40
0
40
0
40
1
40
1
40
1
10
67.710784754111529
20
55.233556156205324
30
0
10
68.258193811728717
20
54.322915201234011
30
0
10
68.258193811728717
20
53.299722795533327
30
0
0
SPLINE
5
270
100
AcDbEntity
8
0
100
AcDbSpline
70
0
71
2
72
6
73
3
74
0
42
0.000000001
43
0.0000000001
44
0.0000000001
40
0
40
0
40
0
40
1
40
1
40
1
10
68.258193811728717
20
53.299722795533327
30
0
10
68.258193811728717
20
52.327690248536257
30
0
10
67.736362299277545
20
51.529599552201418
30
0
0
SPLINE
5
271
100
AcDbEntity
8
0
100
AcDbSpline
70
0
71
2
72
6
73
3
74
0
42
0.000000001
43
0.0000000001
44
0.0000000001
40
0
40
0
40
0
40
1
40
1
40
1
10
67.736362299277545
20
51.529599552201418
30
0
10
67.214530786826373
20
50.731508855866579
30
0
10
66.191343149497271
20
50.260841970490603
30
0
0
SPLINE
5
272
100
AcDbEntity
8
0
100
AcDbSpline
70
0
71
2
72
6
73
3
74
0
42
0.000000001
43
0.0000000001
44
0.0000000001
40
0
40
0
40
0
40
1
40
1
40
1
10
66.191343149497271
20
50.260841970490603
30
0
10
67.521489939048053
20
49.953882818268923
30
0
10
68.258193811728717
20
48.986966733979372
30
0
0
SPLINE
5
273
100
AcDbEntity
8
0
100
AcDbSpline
70
0
71
2
72
6
73
3
74
0
42
0.000000001
43
0.0000000001
44
0.0000000001
40
0
40
0
40
0
40
1
40
1
40
1
10
68.258193811728717
20
48.986966733979372
30
0
10
68.994888147666217
20
48.020050649689821
30
0
10
68.994888147666217
20
46.567115907715944
30
0
0
SPLINE
5
274
100
AcDbEntity
8
0
100
AcDbSpline
70
0
71
2
72
6
73
3
74
0
42
0.000000001
43
0.0000000001
44
0.0000000001
40
0
40
0
40
0
40
1
40
1
40
1
10
68.994888147666217
20
46.567115907715944
30
0
10
68.994888147666217
20
44.602587347077517
30
0
10
67.562421640708209
20
43.236625318574099
30
0
0
SPLINE
5
275
100
AcDbEntity
8
0
100
AcDbSpline
70
0
71
2
72
6
73
3
74
0
42
0.000000001
43
0.0000000001
44
0.0000000001
40
0
40
0
40
0
40
1
40
1
40
1
10
67.562421640708209
20
43.236625318574099
30
0
10
66.129955133750201
20
41.870663290070681
30
0
10
63.940318903281444
20
41.870663290070681
30
0
0
SPLINE
5
276
100
AcDbEntity
8
0
100
AcDbSpline
70
0
71
2
72
6
73
3
74
0
42
0.000000001
43
0.0000000001
44
0.0000000001
40
0
40
0
40
0
40
1
40
1
40
1
10
63.940318903281444
20
41.870663290070681
30
0
10
61.965555033042186
20
41.870663290070681
30
0
10
60.66098578865742
20
43.047335271882204
30
0
0
SPLINE
5
277
100
AcDbEntity
8
0
100
AcDbSpline
70
0
71
2
72
6
73
3
74
0
42
0.000000001
43
0.0000000001
44
0.0000000001
40
0
40
0
40
0
40
1
40
1
40
1
10
60.66098578865742
20
43.047335271882204
30
0
10
59.356416544272655
20
44.224004869507937
30
0
10
59.17224296028828
20
46.096446638154177
30
0
0
ENDSEC
0
SECTION
2
OBJECTS
0
DICTIONARY
5
C
100
AcDbDictionary
3
ACAD_GROUP
350
D
3
ACAD_MLINESTYLE
350
17
0
DICTIONARY
5
D
100
AcDbDictionary
0
DICTIONARY
5
1A
330
C
100
AcDbDictionary
0
DICTIONARY
5
17
100
AcDbDictionary
0
ENDSEC
0
EOF
