0
SECTION
2
HEADER
9
$INSUNITS
70
4
9
$ACADVER
1
AC1014
9
$HANDSEED
5
FFFF
0
ENDSEC
0
SECTION
2
TABLES
0
TABLE
2
VPORT
5
8
100
AcDbSymbolTable
0
ENDTAB
0
TABLE
2
LTYPE
5
5
100
AcDbSymbolTable
0
LTYPE
5
14
100
AcDbSymbolTableRecord
100
AcDbLinetypeTableRecord
2
BYBLOCK
70
0
0
LTYPE
5
15
100
AcDbSymbolTableRecord
100
AcDbLinetypeTableRecord
2
BYLAYER
70
0
0
ENDTAB
0
TABLE
2
LAYER
5
2
100
AcDbSymbolTable
70
2
0
LAYER
5
50
100
AcDbSymbolTableRecord
100
AcDbLayerTableRecord
2
0
70
0
6
CONTINUOUS
0
ENDTAB
0
TABLE
2
STYLE
5
3
100
AcDbSymbolTable
70
1
0
STYLE
5
11
100
AcDbSymbolTableRecord
100
AcDbTextStyleTableRecord
2
STANDARD
70
0
0
ENDTAB
0
TABLE
2
VIEW
5
6
100
AcDbSymbolTable
70
0
0
ENDTAB
0
TABLE
2
UCS
5
7
100
AcDbSymbolTable
70
0
0
ENDTAB
0
TABLE
2
APPID
5
9
100
AcDbSymbolTable
70
2
0
APPID
5
12
100
AcDbSymbolTableRecord
100
AcDbRegAppTableRecord
2
ACAD
70
0
0
ENDTAB
0
TABLE
2
DIMSTYLE
5
A
100
AcDbSymbolTable
70
1
0
ENDTAB
0
TABLE
2
BLOCK_RECORD
5
1
100
AcDbSymbolTable
70
1
0
BLOCK_RECORD
5
1F
100
AcDbSymbolTableRecord
100
AcDbBlockTableRecord
2
*MODEL_SPACE
0
BLOCK_RECORD
5
1B
100
AcDbSymbolTableRecord
100
AcDbBlockTableRecord
2
*PAPER_SPACE
0
ENDTAB
0
ENDSEC
0
SECTION
2
BLOCKS
0
BLOCK
5
20
100
AcDbEntity
100
AcDbBlockBegin
2
*MODEL_SPACE
0
ENDBLK
5
21
100
AcDbEntity
100
AcDbBlockEnd
0
BLOCK
5
1C
100
AcDbEntity
100
AcDbBlockBegin
2
*PAPER_SPACE
0
ENDBLK
5
1D
100
AcDbEntity
100
AcDbBlockEnd
0
ENDSEC
0
SECTION
2
ENTITIES
0
LWPOLYLINE
5
100
100
AcDbEntity
8
0
100
AcDbPolyline
90
4
70
1
43
0.0
10
-60.499999999999972
20
90
10
-60.499999999999972
20
96
10
-89.499999999999972
20
96
10
-89.499999999999972
20
90
0
LWPOLYLINE
5
101
100
AcDbEntity
8
0
100
AcDbPolyline
90
32
70
1
43
0.0
10
-112.51535928808856
20
95.92802363065816
10
-112.51783362934009
20
89.928024140855243
10
-142.5178310783547
20
89.94039584711291
10
-142.51535673710316
20
95.940395336915842
10
-174.97201852906741
20
95.953780147580559
10
-174.95964682280982
20
125.95377759659519
10
-168.95964733300679
20
125.95130325534376
10
-165.5541788602398
20
121.01138579844326
10
-78.465904053812736
20
181.04809223908853
10
-81.871372526579691
20
185.98800969598901
10
-31.871372526579705
20
185.98800969598901
10
-31.871372526579705
20
179.98800969598901
10
-1.8713725265797077
20
179.98800969598901
10
-1.8713725265797077
20
185.98800969598901
10
95.015627473420352
20
185.98800969598901
10
95.015627473420352
20
179.98800969598901
10
125.01562747342035
20
179.98800969598901
10
125.01562747342035
20
185.98800969598901
10
175.01562747342035
20
185.98800969598901
10
175.01562747342035
20
155.98800969598904
10
169.01562747342035
20
155.98800969598904
10
169.01562747342027
20
125.98800969598904
10
175.0156274734203
20
125.98800969598904
10
175.01562747342032
20
95.988009695989035
10
97.515627473420295
20
95.98800969598895
10
97.515627473420295
20
89.98800969598895
10
67.515627473420295
20
89.988009695988907
10
67.515627473420281
20
95.988009695988907
10
-7.484372526579719
20
95.988009695988779
10
-7.4843725265797172
20
89.988009695988779
10
-37.484372526579719
20
89.988009695988751
10
-37.484372526579726
20
95.988009695988751
0
LINE
5
102
100
AcDbEntity
8
0
100
AcDbLine
10
175.01562747342035
20
209.1320319697229
30
0
11
175.01562747342035
21
210.43143948003686
31
0
0
ENDSEC
0
SECTION
2
OBJECTS
0
DICTIONARY
5
C
100
AcDbDictionary
3
ACAD_GROUP
350
D
3
ACAD_MLINESTYLE
350
17
0
DICTIONARY
5
D
100
AcDbDictionary
0
DICTIONARY
5
1A
330
C
100
AcDbDictionary
0
DICTIONARY
5
17
100
AcDbDictionary
0
ENDSEC
0
EOF
