0
SECTION
2
HEADER
9
$INSUNITS
70
4
9
$ACADVER
1
AC1014
9
$HANDSEED
5
FFFF
0
ENDSEC
0
SECTION
2
TABLES
0
TABLE
2
VPORT
5
8
100
AcDbSymbolTable
0
ENDTAB
0
TABLE
2
LTYPE
5
5
100
AcDbSymbolTable
0
LTYPE
5
14
100
AcDbSymbolTableRecord
100
AcDbLinetypeTableRecord
2
BYBLOCK
70
0
0
LTYPE
5
15
100
AcDbSymbolTableRecord
100
AcDbLinetypeTableRecord
2
BYLAYER
70
0
0
ENDTAB
0
TABLE
2
LAYER
5
2
100
AcDbSymbolTable
70
2
0
LAYER
5
50
100
AcDbSymbolTableRecord
100
AcDbLayerTableRecord
2
0
70
0
6
CONTINUOUS
0
ENDTAB
0
TABLE
2
STYLE
5
3
100
AcDbSymbolTable
70
1
0
STYLE
5
11
100
AcDbSymbolTableRecord
100
AcDbTextStyleTableRecord
2
STANDARD
70
0
0
ENDTAB
0
TABLE
2
VIEW
5
6
100
AcDbSymbolTable
70
0
0
ENDTAB
0
TABLE
2
UCS
5
7
100
AcDbSymbolTable
70
0
0
ENDTAB
0
TABLE
2
APPID
5
9
100
AcDbSymbolTable
70
2
0
APPID
5
12
100
AcDbSymbolTableRecord
100
AcDbRegAppTableRecord
2
ACAD
70
0
0
ENDTAB
0
TABLE
2
DIMSTYLE
5
A
100
AcDbSymbolTable
70
1
0
ENDTAB
0
TABLE
2
BLOCK_RECORD
5
1
100
AcDbSymbolTable
70
1
0
BLOCK_RECORD
5
1F
100
AcDbSymbolTableRecord
100
AcDbBlockTableRecord
2
*MODEL_SPACE
0
BLOCK_RECORD
5
1B
100
AcDbSymbolTableRecord
100
AcDbBlockTableRecord
2
*PAPER_SPACE
0
ENDTAB
0
ENDSEC
0
SECTION
2
BLOCKS
0
BLOCK
5
20
100
AcDbEntity
100
AcDbBlockBegin
2
*MODEL_SPACE
0
ENDBLK
5
21
100
AcDbEntity
100
AcDbBlockEnd
0
BLOCK
5
1C
100
AcDbEntity
100
AcDbBlockBegin
2
*PAPER_SPACE
0
ENDBLK
5
1D
100
AcDbEntity
100
AcDbBlockEnd
0
ENDSEC
0
SECTION
2
ENTITIES
0
LWPOLYLINE
5
100
100
AcDbEntity
8
0
100
AcDbPolyline
90
4
70
1
43
0.0
10
68.999999999999915
20
175
10
38.99962342657404
20
175
10
38.99962342657404
20
169
10
68.999999999999915
20
169
0
LINE
5
101
100
AcDbEntity
8
0
100
AcDbLine
10
68.999999999999915
20
175
30
0
11
38.999623426574033
21
175
31
0
0
LWPOLYLINE
5
102
100
AcDbEntity
8
0
100
AcDbPolyline
90
2
70
1
43
0.0
10
-38.988988679047523
20
175
10
-69.038057983906427
20
175
0
LINE
5
103
100
AcDbEntity
8
0
100
AcDbLine
10
-69.038057983906427
20
175
30
0
11
-69.038057983906427
21
169
31
0
0
LINE
5
104
100
AcDbEntity
8
0
100
AcDbLine
10
-69.038057983906427
20
169
30
0
11
-38.988988679047516
21
169
31
0
0
LINE
5
105
100
AcDbEntity
8
0
100
AcDbLine
10
-38.988988679047516
20
169
30
0
11
-38.988988679047523
21
175
31
0
0
LINE
5
106
100
AcDbEntity
8
0
100
AcDbLine
10
68.999999999999915
20
175
30
0
11
68.999999999999915
21
169
31
0
0
LINE
5
107
100
AcDbEntity
8
0
100
AcDbLine
10
68.999999999999915
20
169
30
0
11
128.99999999999991
21
169
31
0
0
LINE
5
108
100
AcDbEntity
8
0
100
AcDbLine
10
128.99999999999991
20
169
30
0
11
128.99999999999994
21
89.999999999999986
31
0
0
LINE
5
109
100
AcDbEntity
8
0
100
AcDbLine
10
128.99999999999994
20
89.999999999999986
30
0
11
134.99999999999994
21
89.999999999999986
31
0
0
LINE
5
110
100
AcDbEntity
8
0
100
AcDbLine
10
134.99999999999994
20
59.999999999999986
30
0
11
128.99999999999997
21
59.999999999999986
31
0
0
LINE
5
111
100
AcDbEntity
8
0
100
AcDbLine
10
128.99999999999997
20
59.999999999999986
30
0
11
128.99999999999997
21
-15.000000000000018
31
0
0
LINE
5
112
100
AcDbEntity
8
0
100
AcDbLine
10
128.99999999999997
20
-15.000000000000018
30
0
11
134.99999999999997
21
-15.000000000000018
31
0
0
LINE
5
113
100
AcDbEntity
8
0
100
AcDbLine
10
134.99999999999994
20
-45.000000000000014
30
0
11
128.99999999999997
21
-45.000000000000014
31
0
0
LINE
5
114
100
AcDbEntity
8
0
100
AcDbLine
10
128.99999999999997
20
-45.000000000000014
30
0
11
128.99999999999997
21
-120.00000000000001
31
0
0
LINE
5
115
100
AcDbEntity
8
0
100
AcDbLine
10
128.99999999999997
20
-120.00000000000001
30
0
11
134.99999999999997
21
-120.00000000000001
31
0
0
LINE
5
116
100
AcDbEntity
8
0
100
AcDbLine
10
134.99999999999994
20
-150.00000000000003
30
0
11
129.17425791494736
21
-150.00000000000003
31
0
0
LINE
5
117
100
AcDbEntity
8
0
100
AcDbLine
10
129.17425791494736
20
-150.00000000000003
30
0
11
129.07174731836199
21
-169.00000000000003
31
0
0
LINE
5
118
100
AcDbEntity
8
0
100
AcDbLine
10
134.99999999999994
20
-150.00000000000003
30
0
11
134.99999999999997
21
-120.00000000000001
31
0
0
LINE
5
119
100
AcDbEntity
8
0
100
AcDbLine
10
134.99999999999994
20
-45.000000000000014
30
0
11
134.99999999999997
21
-15.000000000000018
31
0
0
LINE
5
120
100
AcDbEntity
8
0
100
AcDbLine
10
134.99999999999994
20
59.999999999999986
30
0
11
134.99999999999994
21
89.999999999999986
31
0
0
LINE
5
121
100
AcDbEntity
8
0
100
AcDbLine
10
38.999623426574033
20
175
30
0
11
38.99962342657404
21
169
31
0
0
LINE
5
122
100
AcDbEntity
8
0
100
AcDbLine
10
38.99962342657404
20
169
30
0
11
-38.988988679047516
21
169
31
0
0
LINE
5
123
100
AcDbEntity
8
0
100
AcDbLine
10
-38.988988679047523
20
175
30
0
11
-38.988988679047516
21
169
31
0
0
LINE
5
124
100
AcDbEntity
8
0
100
AcDbLine
10
-69.038057983906427
20
175
30
0
11
-69.038057983906427
21
169
31
0
0
LINE
5
125
100
AcDbEntity
8
0
100
AcDbLine
10
-69.038057983906427
20
169
30
0
11
-129.03805798390641
21
169
31
0
0
LINE
5
126
100
AcDbEntity
8
0
100
AcDbLine
10
-129.03805798390641
20
169
30
0
11
-129.03805798390647
21
89.999999999999986
31
0
0
LINE
5
127
100
AcDbEntity
8
0
100
AcDbLine
10
-129.03805798390647
20
89.999999999999986
30
0
11
-135.03805798390647
21
89.999999999999986
31
0
0
LINE
5
128
100
AcDbEntity
8
0
100
AcDbLine
10
-135.03805798390647
20
59.999999999999972
30
0
11
-129.03805798390647
21
59.999999999999972
31
0
0
LINE
5
129
100
AcDbEntity
8
0
100
AcDbLine
10
-129.03805798390647
20
59.999999999999972
30
0
11
-129.03805798390647
21
-15.000000000000027
31
0
0
LINE
5
130
100
AcDbEntity
8
0
100
AcDbLine
10
-129.03805798390647
20
-15.000000000000027
30
0
11
-135.03805798390647
21
-15.000000000000027
31
0
0
LINE
5
131
100
AcDbEntity
8
0
100
AcDbLine
10
-135.03805798390647
20
-45.000000000000028
30
0
11
-129.03805798390647
21
-45.000000000000028
31
0
0
LINE
5
132
100
AcDbEntity
8
0
100
AcDbLine
10
-129.03805798390647
20
-45.000000000000028
30
0
11
-129.03805798390647
21
-120.00000000000003
31
0
0
LINE
5
133
100
AcDbEntity
8
0
100
AcDbLine
10
-129.03805798390647
20
-120.00000000000003
30
0
11
-135.03805798390647
21
-120.00000000000001
31
0
0
LINE
5
134
100
AcDbEntity
8
0
100
AcDbLine
10
-135.03805798390647
20
-150.00000000000003
30
0
11
-129.24099580636044
21
-150.00000000000003
31
0
0
LINE
5
135
100
AcDbEntity
8
0
100
AcDbLine
10
-129.24099580636044
20
-150.00000000000003
30
0
11
-129.24099580636044
21
-169.00000000000003
31
0
0
LINE
5
136
100
AcDbEntity
8
0
100
AcDbLine
10
-129.24099580636044
20
-169.00000000000003
30
0
11
-69.240995806360445
21
-169.00000000000003
31
0
0
LINE
5
137
100
AcDbEntity
8
0
100
AcDbLine
10
-69.240995806360445
20
-169.00000000000003
30
0
11
-69.240995806360445
21
-175.00000000000003
31
0
0
LINE
5
138
100
AcDbEntity
8
0
100
AcDbLine
10
-39.240995806360445
20
-175.00000000000003
30
0
11
-39.240995806360445
21
-168.78857050401075
31
0
0
LINE
5
139
100
AcDbEntity
8
0
100
AcDbLine
10
-39.240995806360445
20
-168.78857050401075
30
0
11
39.071747318361972
21
-168.78857050401075
31
0
0
LINE
5
140
100
AcDbEntity
8
0
100
AcDbLine
10
39.071747318361972
20
-168.78857050401075
30
0
11
39.071747318361972
21
-175.00000000000003
31
0
0
LINE
5
141
100
AcDbEntity
8
0
100
AcDbLine
10
69.071747318361957
20
-175.00000000000003
30
0
11
69.071747318361986
21
-168.67628232657242
31
0
0
LINE
5
142
100
AcDbEntity
8
0
100
AcDbLine
10
69.071747318361986
20
-168.67628232657242
30
0
11
129.07174731836199
21
-169.00000000000003
31
0
0
LINE
5
143
100
AcDbEntity
8
0
100
AcDbLine
10
-69.240995806360445
20
-175.00000000000003
30
0
11
-39.240995806360445
21
-175.00000000000003
31
0
0
LINE
5
144
100
AcDbEntity
8
0
100
AcDbLine
10
39.071747318361972
20
-175.00000000000003
30
0
11
69.071747318361957
21
-175.00000000000003
31
0
0
LINE
5
145
100
AcDbEntity
8
0
100
AcDbLine
10
-135.03805798390647
20
-120.00000000000001
30
0
11
-135.03805798390647
21
-150.00000000000003
31
0
0
LINE
5
146
100
AcDbEntity
8
0
100
AcDbLine
10
-135.03805798390647
20
89.999999999999986
30
0
11
-135.03805798390647
21
59.999999999999972
31
0
0
LINE
5
147
100
AcDbEntity
8
0
100
AcDbLine
10
-135.03805798390647
20
-15.000000000000027
30
0
11
-135.03805798390647
21
-45.000000000000028
31
0
0
LINE
5
148
100
AcDbEntity
8
0
100
AcDbLine
10
-69.038057983906427
20
175
30
0
11
-38.988988679047523
21
175
31
0
0
LWPOLYLINE
5
149
100
AcDbEntity
8
0
100
AcDbPolyline
90
4
70
1
43
0.0
10
113.99999999999969
20
-54.911189312371143
10
10.99999999999968
20
-54.911189312371143
10
10.99999999999968
20
-157.91118931237116
10
113.99999999999966
20
-157.91118931237114
0
LWPOLYLINE
5
150
100
AcDbEntity
8
0
100
AcDbPolyline
90
4
70
1
43
0.0
10
-114.74674160565013
20
-56.465142217237052
10
-60.746741605650115
20
-56.465142217237066
10
-60.746741605650115
20
-158.46514221723706
10
-114.74674160565013
20
-158.46514221723706
0
LWPOLYLINE
5
151
100
AcDbEntity
8
0
100
AcDbPolyline
90
4
70
1
43
0.0
10
-49.794594840871596
20
20.260668524858847
10
40.205405159128404
20
20.260668524858847
10
40.205405159128404
20
-39.739331475141142
10
-49.794594840871596
20
-39.739331475141142
0
LINE
5
152
100
AcDbEntity
8
0
100
AcDbLine
10
113.99999999999969
20
-110.36366954171406
30
0
11
128.99999999999997
21
-110.36366954171406
31
0
0
LINE
5
153
100
AcDbEntity
8
0
100
AcDbLine
10
-60.746741605650115
20
-143.16099972677927
30
0
11
-24.746741605650119
21
-143.16099972677927
31
0
0
CIRCLE
5
154
100
AcDbEntity
8
0
100
AcDbCircle
10
-24.746741605650119
20
-143.16099972677927
30
0
40
17.500000000000007
210
0
220
0
230
1
0
ENDSEC
0
SECTION
2
OBJECTS
0
DICTIONARY
5
C
100
AcDbDictionary
3
ACAD_GROUP
350
D
3
ACAD_MLINESTYLE
350
17
0
DICTIONARY
5
D
100
AcDbDictionary
0
DICTIONARY
5
1A
330
C
100
AcDbDictionary
0
DICTIONARY
5
17
100
AcDbDictionary
0
ENDSEC
0
EOF
