0
SECTION
2
HEADER
9
$INSUNITS
70
4
9
$ACADVER
1
AC1014
9
$HANDSEED
5
FFFF
0
ENDSEC
0
SECTION
2
TABLES
0
TABLE
2
VPORT
5
8
100
AcDbSymbolTable
0
ENDTAB
0
TABLE
2
LTYPE
5
5
100
AcDbSymbolTable
0
LTYPE
5
14
100
AcDbSymbolTableRecord
100
AcDbLinetypeTableRecord
2
BYBLOCK
70
0
0
LTYPE
5
15
100
AcDbSymbolTableRecord
100
AcDbLinetypeTableRecord
2
BYLAYER
70
0
0
ENDTAB
0
TABLE
2
LAYER
5
2
100
AcDbSymbolTable
70
2
0
LAYER
5
50
100
AcDbSymbolTableRecord
100
AcDbLayerTableRecord
2
0
70
0
6
CONTINUOUS
0
ENDTAB
0
TABLE
2
STYLE
5
3
100
AcDbSymbolTable
70
1
0
STYLE
5
11
100
AcDbSymbolTableRecord
100
AcDbTextStyleTableRecord
2
STANDARD
70
0
0
ENDTAB
0
TABLE
2
VIEW
5
6
100
AcDbSymbolTable
70
0
0
ENDTAB
0
TABLE
2
UCS
5
7
100
AcDbSymbolTable
70
0
0
ENDTAB
0
TABLE
2
APPID
5
9
100
AcDbSymbolTable
70
2
0
APPID
5
12
100
AcDbSymbolTableRecord
100
AcDbRegAppTableRecord
2
ACAD
70
0
0
ENDTAB
0
TABLE
2
DIMSTYLE
5
A
100
AcDbSymbolTable
70
1
0
ENDTAB
0
TABLE
2
BLOCK_RECORD
5
1
100
AcDbSymbolTable
70
1
0
BLOCK_RECORD
5
1F
100
AcDbSymbolTableRecord
100
AcDbBlockTableRecord
2
*MODEL_SPACE
0
BLOCK_RECORD
5
1B
100
AcDbSymbolTableRecord
100
AcDbBlockTableRecord
2
*PAPER_SPACE
0
ENDTAB
0
ENDSEC
0
SECTION
2
BLOCKS
0
BLOCK
5
20
100
AcDbEntity
100
AcDbBlockBegin
2
*MODEL_SPACE
0
ENDBLK
5
21
100
AcDbEntity
100
AcDbBlockEnd
0
BLOCK
5
1C
100
AcDbEntity
100
AcDbBlockBegin
2
*PAPER_SPACE
0
ENDBLK
5
1D
100
AcDbEntity
100
AcDbBlockEnd
0
ENDSEC
0
SECTION
2
ENTITIES
0
LWPOLYLINE
5
100
100
AcDbEntity
8
0
100
AcDbPolyline
90
4
70
1
43
0.0
10
-175
20
0
10
175
20
0
10
175
20
6.0000000000000009
10
-175
20
6.0000000000000009
0
LINE
5
101
100
AcDbEntity
8
0
100
AcDbLine
10
-100
20
6.0000000000000009
30
0
11
-100
21
0
31
0
0
LINE
5
102
100
AcDbEntity
8
0
100
AcDbLine
10
-70
20
0
30
0
11
-70
21
6.0000000000000009
31
0
0
LINE
5
103
100
AcDbEntity
8
0
100
AcDbLine
10
5
20
6.0000000000000009
30
0
11
5
21
0
31
0
0
LINE
5
104
100
AcDbEntity
8
0
100
AcDbLine
10
35
20
0
30
0
11
35
21
6.0000000000000009
31
0
0
LINE
5
105
100
AcDbEntity
8
0
100
AcDbLine
10
110
20
6.0000000000000009
30
0
11
110
21
0
31
0
0
LINE
5
106
100
AcDbEntity
8
0
100
AcDbLine
10
110
20
0
30
0
11
140
21
0
31
0
0
LINE
5
107
100
AcDbEntity
8
0
100
AcDbLine
10
140
20
0
30
0
11
140
21
6.0000000000000009
31
0
0
LINE
5
108
100
AcDbEntity
8
0
100
AcDbLine
10
140
20
6.0000000000000009
30
0
11
175
21
5.9999999999999982
31
0
0
LINE
5
109
100
AcDbEntity
8
0
100
AcDbLine
10
-150
20
96.000000000000014
30
0
11
-150
21
90.000000000000014
31
0
0
LINE
5
110
100
AcDbEntity
8
0
100
AcDbLine
10
-150
20
90.000000000000014
30
0
11
-120
21
90
31
0
0
LINE
5
111
100
AcDbEntity
8
0
100
AcDbLine
10
-120
20
90
30
0
11
-120
21
96.000000000000014
31
0
0
LINE
5
112
100
AcDbEntity
8
0
100
AcDbLine
10
-44.999999999999993
20
96.000000000000014
30
0
11
-44.999999999999993
21
90.000000000000014
31
0
0
LINE
5
113
100
AcDbEntity
8
0
100
AcDbLine
10
-44.999999999999993
20
90.000000000000014
30
0
11
-14.999999999999991
21
90.000000000000014
31
0
0
LINE
5
114
100
AcDbEntity
8
0
100
AcDbLine
10
-14.999999999999991
20
90.000000000000014
30
0
11
-14.999999999999991
21
96.000000000000014
31
0
0
LINE
5
115
100
AcDbEntity
8
0
100
AcDbLine
10
60.000000000000007
20
96.000000000000014
30
0
11
60.000000000000007
21
90.000000000000014
31
0
0
LINE
5
116
100
AcDbEntity
8
0
100
AcDbLine
10
60.000000000000007
20
90.000000000000014
30
0
11
90.000000000000014
21
90.000000000000014
31
0
0
LINE
5
117
100
AcDbEntity
8
0
100
AcDbLine
10
90.000000000000014
20
90.000000000000014
30
0
11
90.000000000000014
21
96.000000000000014
31
0
0
LINE
5
118
100
AcDbEntity
8
0
100
AcDbLine
10
175
20
5.9999999999999982
30
0
11
175
21
36
31
0
0
LINE
5
119
100
AcDbEntity
8
0
100
AcDbLine
10
175
20
36
30
0
11
169
21
36
31
0
0
LINE
5
120
100
AcDbEntity
8
0
100
AcDbLine
10
169
20
36
30
0
11
169
21
66
31
0
0
LINE
5
121
100
AcDbEntity
8
0
100
AcDbLine
10
169
20
66
30
0
11
175
21
66
31
0
0
LWPOLYLINE
5
122
100
AcDbEntity
8
0
100
AcDbPolyline
90
2
70
1
43
0.0
10
175
20
66
10
175
20
96.000000000000014
0
LINE
5
123
100
AcDbEntity
8
0
100
AcDbLine
10
-120
20
96.000000000000014
30
0
11
-97.5
21
96.000000000000014
31
0
0
LINE
5
124
100
AcDbEntity
8
0
100
AcDbLine
10
-97.5
20
96.000000000000014
30
0
11
-97.5
21
90.000000000000014
31
0
0
LINE
5
125
100
AcDbEntity
8
0
100
AcDbLine
10
-97.5
20
90.000000000000014
30
0
11
-67.5
21
90.000000000000014
31
0
0
LINE
5
126
100
AcDbEntity
8
0
100
AcDbLine
10
-67.5
20
90.000000000000014
30
0
11
-67.5
21
96.000000000000014
31
0
0
LINE
5
127
100
AcDbEntity
8
0
100
AcDbLine
10
-14.999999999999991
20
96.000000000000014
30
0
11
7.5000000000000089
21
96.000000000000014
31
0
0
LINE
5
128
100
AcDbEntity
8
0
100
AcDbLine
10
7.5000000000000089
20
96.000000000000014
30
0
11
7.5000000000000089
21
90.000000000000014
31
0
0
LINE
5
129
100
AcDbEntity
8
0
100
AcDbLine
10
7.5000000000000089
20
90.000000000000014
30
0
11
37.500000000000007
21
90.000000000000014
31
0
0
LINE
5
130
100
AcDbEntity
8
0
100
AcDbLine
10
37.500000000000007
20
90.000000000000014
30
0
11
37.500000000000007
21
96.000000000000014
31
0
0
LINE
5
131
100
AcDbEntity
8
0
100
AcDbLine
10
90.000000000000014
20
96.000000000000014
30
0
11
112.50000000000001
21
96.000000000000014
31
0
0
LINE
5
132
100
AcDbEntity
8
0
100
AcDbLine
10
112.50000000000001
20
96.000000000000014
30
0
11
112.50000000000001
21
90.000000000000014
31
0
0
LINE
5
133
100
AcDbEntity
8
0
100
AcDbLine
10
112.50000000000001
20
90.000000000000014
30
0
11
142.50000000000003
21
90
31
0
0
LINE
5
134
100
AcDbEntity
8
0
100
AcDbLine
10
142.50000000000003
20
90
30
0
11
142.50000000000003
21
96.000000000000014
31
0
0
LWPOLYLINE
5
135
100
AcDbEntity
8
0
100
AcDbPolyline
90
2
70
1
43
0.0
10
-120
20
96.000000000000014
10
-97.5
20
96.000000000000014
0
LWPOLYLINE
5
136
100
AcDbEntity
8
0
100
AcDbPolyline
90
2
70
1
43
0.0
10
-67.5
20
96.000000000000014
10
-44.999999999999993
20
96.000000000000014
0
LWPOLYLINE
5
137
100
AcDbEntity
8
0
100
AcDbPolyline
90
2
70
1
43
0.0
10
-14.999999999999991
20
96.000000000000014
10
7.5000000000000089
20
96.000000000000014
0
LWPOLYLINE
5
138
100
AcDbEntity
8
0
100
AcDbPolyline
90
2
70
1
43
0.0
10
37.500000000000007
20
96.000000000000014
10
60.000000000000007
20
96.000000000000014
0
LINE
5
139
100
AcDbEntity
8
0
100
AcDbLine
10
90.000000000000014
20
96.000000000000014
30
0
11
112.50000000000001
21
96.000000000000014
31
0
0
LINE
5
140
100
AcDbEntity
8
0
100
AcDbLine
10
142.50000000000003
20
96.000000000000014
30
0
11
175
21
96.000000000000014
31
0
0
LINE
5
141
100
AcDbEntity
8
0
100
AcDbLine
10
175
20
36
30
0
11
175
21
6.0000000000000009
31
0
0
LINE
5
142
100
AcDbEntity
8
0
100
AcDbLine
10
-175
20
96.000000000000014
30
0
11
-150
21
96.000000000000014
31
0
0
LINE
5
143
100
AcDbEntity
8
0
100
AcDbLine
10
-175
20
66
30
0
11
-175
21
96.000000000000014
31
0
0
LINE
5
144
100
AcDbEntity
8
0
100
AcDbLine
10
-175
20
66
30
0
11
-169
21
66
31
0
0
LINE
5
145
100
AcDbEntity
8
0
100
AcDbLine
10
-169
20
36
30
0
11
-169
21
66
31
0
0
LINE
5
146
100
AcDbEntity
8
0
100
AcDbLine
10
-169
20
36
30
0
11
-175
21
36
31
0
0
LINE
5
147
100
AcDbEntity
8
0
100
AcDbLine
10
-175
20
36
30
0
11
-175
21
6.0000000000000009
31
0
0
LINE
5
148
100
AcDbEntity
8
0
100
AcDbLine
10
-175
20
6.0000000000000009
30
0
11
-100
21
6.0000000000000009
31
0
0
LINE
5
149
100
AcDbEntity
8
0
100
AcDbLine
10
-100
20
0
30
0
11
-70
21
0
31
0
0
LINE
5
150
100
AcDbEntity
8
0
100
AcDbLine
10
-70
20
6.0000000000000009
30
0
11
5
21
6.0000000000000009
31
0
0
LINE
5
151
100
AcDbEntity
8
0
100
AcDbLine
10
5
20
0
30
0
11
35
21
0
31
0
0
LINE
5
152
100
AcDbEntity
8
0
100
AcDbLine
10
35
20
6.0000000000000009
30
0
11
110
21
6.0000000000000009
31
0
0
ENDSEC
0
SECTION
2
OBJECTS
0
DICTIONARY
5
C
100
AcDbDictionary
3
ACAD_GROUP
350
D
3
ACAD_MLINESTYLE
350
17
0
DICTIONARY
5
D
100
AcDbDictionary
0
DICTIONARY
5
1A
330
C
100
AcDbDictionary
0
DICTIONARY
5
17
100
AcDbDictionary
0
ENDSEC
0
EOF
