0
SECTION
2
HEADER
9
$INSUNITS
70
4
9
$ACADVER
1
AC1014
9
$HANDSEED
5
FFFF
0
ENDSEC
0
SECTION
2
TABLES
0
TABLE
2
VPORT
5
8
100
AcDbSymbolTable
0
ENDTAB
0
TABLE
2
LTYPE
5
5
100
AcDbSymbolTable
0
LTYPE
5
14
100
AcDbSymbolTableRecord
100
AcDbLinetypeTableRecord
2
BYBLOCK
70
0
0
LTYPE
5
15
100
AcDbSymbolTableRecord
100
AcDbLinetypeTableRecord
2
BYLAYER
70
0
0
ENDTAB
0
TABLE
2
LAYER
5
2
100
AcDbSymbolTable
70
2
0
LAYER
5
50
100
AcDbSymbolTableRecord
100
AcDbLayerTableRecord
2
0
70
0
6
CONTINUOUS
0
ENDTAB
0
TABLE
2
STYLE
5
3
100
AcDbSymbolTable
70
1
0
STYLE
5
11
100
AcDbSymbolTableRecord
100
AcDbTextStyleTableRecord
2
STANDARD
70
0
0
ENDTAB
0
TABLE
2
VIEW
5
6
100
AcDbSymbolTable
70
0
0
ENDTAB
0
TABLE
2
UCS
5
7
100
AcDbSymbolTable
70
0
0
ENDTAB
0
TABLE
2
APPID
5
9
100
AcDbSymbolTable
70
2
0
APPID
5
12
100
AcDbSymbolTableRecord
100
AcDbRegAppTableRecord
2
ACAD
70
0
0
ENDTAB
0
TABLE
2
DIMSTYLE
5
A
100
AcDbSymbolTable
70
1
0
ENDTAB
0
TABLE
2
BLOCK_RECORD
5
1
100
AcDbSymbolTable
70
1
0
BLOCK_RECORD
5
1F
100
AcDbSymbolTableRecord
100
AcDbBlockTableRecord
2
*MODEL_SPACE
0
BLOCK_RECORD
5
1B
100
AcDbSymbolTableRecord
100
AcDbBlockTableRecord
2
*PAPER_SPACE
0
ENDTAB
0
ENDSEC
0
SECTION
2
BLOCKS
0
BLOCK
5
20
100
AcDbEntity
100
AcDbBlockBegin
2
*MODEL_SPACE
0
ENDBLK
5
21
100
AcDbEntity
100
AcDbBlockEnd
0
BLOCK
5
1C
100
AcDbEntity
100
AcDbBlockBegin
2
*PAPER_SPACE
0
ENDBLK
5
1D
100
AcDbEntity
100
AcDbBlockEnd
0
ENDSEC
0
SECTION
2
ENTITIES
0
LWPOLYLINE
5
100
100
AcDbEntity
8
0
100
AcDbPolyline
90
4
70
1
43
0.0
10
135
20
-124.99971081987854
10
135
20
-94.999710819878544
10
129
20
-94.999710819878544
10
129
20
-124.99971081987854
0
LINE
5
101
100
AcDbEntity
8
0
100
AcDbLine
10
-128.23495707936632
20
-95.228670342039905
30
0
11
-135.00871984150317
21
-95.228670342039905
31
0
0
LINE
5
102
100
AcDbEntity
8
0
100
AcDbLine
10
-135.00871984150317
20
-95.228670342039905
30
0
11
-135.00871984150317
21
-125.2286703420399
31
0
0
LINE
5
103
100
AcDbEntity
8
0
100
AcDbLine
10
-135.00871984150317
20
-125.2286703420399
30
0
11
-129.00871984150317
21
-125.2286703420399
31
0
0
LINE
5
104
100
AcDbEntity
8
0
100
AcDbLine
10
-129.00871984150317
20
-125.2286703420399
30
0
11
-129.00871984150317
21
-168.12589237073632
31
0
0
LINE
5
105
100
AcDbEntity
8
0
100
AcDbLine
10
-129.00871984150317
20
-168.12589237073632
30
0
11
-65.433169117201629
21
-168.12589237073632
31
0
0
LINE
5
106
100
AcDbEntity
8
0
100
AcDbLine
10
-65.433169117201629
20
-168.12589237073632
30
0
11
-65.433169117201629
21
-174.64673533081503
31
0
0
LINE
5
107
100
AcDbEntity
8
0
100
AcDbLine
10
-65.433169117201629
20
-174.64673533081503
30
0
11
-35.433169117201629
21
-174.64673533081503
31
0
0
LINE
5
108
100
AcDbEntity
8
0
100
AcDbLine
10
-35.433169117201629
20
-174.64673533081503
30
0
11
-35.433169117201629
21
-168.64673533081501
31
0
0
LINE
5
109
100
AcDbEntity
8
0
100
AcDbLine
10
-35.433169117201629
20
-168.64673533081501
30
0
11
33.762407792243124
21
-168.64673533081501
31
0
0
LINE
5
110
100
AcDbEntity
8
0
100
AcDbLine
10
33.762407792243124
20
-168.64673533081501
30
0
11
33.762407792243124
21
-174.51334272116389
31
0
0
LINE
5
111
100
AcDbEntity
8
0
100
AcDbLine
10
33.762407792243124
20
-174.51334272116389
30
0
11
63.762407792243124
21
-174.51334272116389
31
0
0
LINE
5
112
100
AcDbEntity
8
0
100
AcDbLine
10
63.762407792243124
20
-174.51334272116389
30
0
11
63.762407792243124
21
-174.99971081987854
31
0
0
LINE
5
113
100
AcDbEntity
8
0
100
AcDbLine
10
129
20
-168.71860167513265
30
0
11
129
21
-124.99971081987854
31
0
0
LINE
5
114
100
AcDbEntity
8
0
100
AcDbLine
10
129
20
-124.99971081987854
30
0
11
135
21
-124.99971081987854
31
0
0
LINE
5
115
100
AcDbEntity
8
0
100
AcDbLine
10
129
20
-94.999710819878544
30
0
11
135
21
-94.999710819878544
31
0
0
LINE
5
116
100
AcDbEntity
8
0
100
AcDbLine
10
135
20
-78.900178896479531
30
0
11
129
21
-78.900178896479531
31
0
0
LINE
5
117
100
AcDbEntity
8
0
100
AcDbLine
10
135
20
-124.99971081987854
30
0
11
135
21
-94.999710819878544
31
0
0
LINE
5
118
100
AcDbEntity
8
0
100
AcDbLine
10
129
20
-94.999710819878544
30
0
11
129
21
1.7221540443290455
31
0
0
LINE
5
119
100
AcDbEntity
8
0
100
AcDbLine
10
129
20
1.7221540443290455
30
0
11
134.84245545491262
21
1.7221540443290455
31
0
0
LINE
5
120
100
AcDbEntity
8
0
100
AcDbLine
10
134.84245545491262
20
1.7221540443290455
30
0
11
134.84245545491262
21
31.722154044329045
31
0
0
LINE
5
121
100
AcDbEntity
8
0
100
AcDbLine
10
134.84245545491262
20
31.722154044329045
30
0
11
128.84245545491262
21
31.722154044329038
31
0
0
LINE
5
122
100
AcDbEntity
8
0
100
AcDbLine
10
128.84245545491262
20
31.722154044329038
30
0
11
128.84245545491262
21
81.705897334205915
31
0
0
LINE
5
123
100
AcDbEntity
8
0
100
AcDbLine
10
128.84245545491262
20
81.705897334205915
30
0
11
-128.23495707936635
21
81.705897334206057
31
0
0
LINE
5
124
100
AcDbEntity
8
0
100
AcDbLine
10
63.762407792243124
20
-174.99971081987854
30
0
11
63.762407792243124
21
-168.71860167513265
31
0
0
LINE
5
125
100
AcDbEntity
8
0
100
AcDbLine
10
63.762407792243124
20
-168.71860167513265
30
0
11
129
21
-168.71860167513265
31
0
0
LINE
5
126
100
AcDbEntity
8
0
100
AcDbLine
10
-128.23495707936632
20
-95.228670342039905
30
0
11
-128.23495707936635
21
1.7058973342060559
31
0
0
LINE
5
127
100
AcDbEntity
8
0
100
AcDbLine
10
-128.23495707936635
20
1.7058973342060559
30
0
11
-134.23495707936635
21
1.7058973342060568
31
0
0
LINE
5
128
100
AcDbEntity
8
0
100
AcDbLine
10
-134.23495707936635
20
1.7058973342060568
30
0
11
-134.23495707936635
21
31.705897334206057
31
0
0
LINE
5
129
100
AcDbEntity
8
0
100
AcDbLine
10
-134.23495707936635
20
31.705897334206057
30
0
11
-128.23495707936635
21
31.70589733420606
31
0
0
LINE
5
130
100
AcDbEntity
8
0
100
AcDbLine
10
-128.23495707936635
20
31.70589733420606
30
0
11
-128.23495707936635
21
81.705897334206057
31
0
0
ENDSEC
0
SECTION
2
OBJECTS
0
DICTIONARY
5
C
100
AcDbDictionary
3
ACAD_GROUP
350
D
3
ACAD_MLINESTYLE
350
17
0
DICTIONARY
5
D
100
AcDbDictionary
0
DICTIONARY
5
1A
330
C
100
AcDbDictionary
0
DICTIONARY
5
17
100
AcDbDictionary
0
ENDSEC
0
EOF
